<svg width="90" height="98" viewBox="0 0 90 98" fill="none" xmlns="http://www.w3.org/2000/svg">
<path d="M23.7377 19.6862C23.7377 19.6862 22.4936 23.4793 22.019 31.7856C21.6059 39.0108 21.4766 49.6506 22.4361 64.1792H58.5665L42.9876 16.2708L23.7377 19.6862Z" fill="url(#paint0_linear_5401_964)"/>
<path d="M67.8237 14.6562C67.8237 14.6562 69.7285 19.7833 70.7132 29.2149C71.5892 37.6073 71.7815 49.3969 71.0806 64.1784H34.9502L50.5292 16.2699L67.8237 14.6562Z" fill="url(#paint1_linear_5401_964)"/>
<path d="M72.6245 59.8758L56.8563 54.5267L55.2795 46.6243H38.7229L35.5693 54.5267L20.5895 59.8758C20.5895 59.8758 4.82129 63.6674 4.82129 94.087H18.2243V97.9901H74.9898V94.0878H88.3927C88.3927 63.6674 72.6245 59.8758 72.6245 59.8758Z" fill="url(#paint2_linear_5401_964)"/>
<path d="M56.8566 54.5267L55.2797 46.6243H38.7231L37.6162 49.3561L51.247 63.0186L56.8566 54.5267Z" fill="#EBA38D"/>
<path d="M29.9335 24.4978C29.9335 24.4978 21.272 30.6894 33.2038 40.3027L29.9335 24.4978Z" fill="url(#paint3_linear_5401_964)"/>
<path d="M63.2801 24.4978C63.2801 24.4978 71.9416 30.6894 60.0098 40.3027L63.2801 24.4978Z" fill="url(#paint4_linear_5401_964)"/>
<path d="M63.5579 24.6682C63.5579 37.9909 57.6196 53.7365 46.6071 53.7365C35.4865 53.7365 29.6562 37.9909 29.6562 24.6682C29.6562 11.3463 37.2455 4.74146 46.6071 4.74146C55.9686 4.74146 63.5579 11.3463 63.5579 24.6682Z" fill="url(#paint5_linear_5401_964)"/>
<path d="M44.2418 62.4291L36.2118 52.917L35.5693 54.5267L20.5895 59.8759C20.5895 59.8759 4.82129 63.6675 4.82129 94.0871H18.2243V97.9901H46.607V67.1706L44.2418 62.4291Z" fill="url(#paint6_linear_5401_964)"/>
<path d="M38.723 97.9902L31.8442 55.8568L24.2718 58.3209C21.3056 59.2861 18.3298 60.3005 15.7831 62.1018C9.98706 66.2011 0 76.3976 0 97.9902H18.2244H38.723Z" fill="#18669B"/>
<path d="M31.8444 55.8567L26.0165 57.9382L20.5898 72.7023L27.6855 81.395L22.1667 85.3462L33.9889 97.9901H38.7233L31.8444 55.8567Z" fill="url(#paint7_linear_5401_964)"/>
<path d="M36.3574 51.366L44.2415 62.4294L29.2617 73.4928L30.8385 55.3172L36.3574 51.366Z" fill="url(#paint8_linear_5401_964)"/>
<path d="M9.10742 97.6837C9.10742 97.7267 18.7503 97.7267 18.7503 97.7267V76.2483L9.10742 97.6837Z" fill="url(#paint9_linear_5401_964)"/>
<path d="M48.9727 62.4291L57.0026 52.917L57.6452 54.5267L72.6249 59.8759C72.6249 59.8759 88.3931 63.6675 88.3931 94.0871H74.9902V97.9901H46.6074V67.1706L48.9727 62.4291Z" fill="url(#paint10_linear_5401_964)"/>
<path d="M54.4912 97.9901L61.3701 55.8567L68.1566 57.8061C72.7007 59.1114 77.2422 60.8379 80.2756 64.4645C84.5981 69.6324 89.9999 79.7413 89.9999 97.9901H76.0714H74.9899H54.4912Z" fill="#18669B"/>
<path d="M61.3701 55.8567L67.198 57.9382L72.6246 72.7023L65.5289 81.395L71.0478 85.3462L59.2256 97.9901H54.4912L61.3701 55.8567Z" fill="url(#paint11_linear_5401_964)"/>
<path d="M56.8568 51.366L48.9727 62.4294L63.9524 73.4928L62.3756 55.3172L56.8568 51.366Z" fill="url(#paint12_linear_5401_964)"/>
<path d="M84.1067 97.981C84.1067 98.024 74.4639 97.981 74.4639 97.981V76.2483L84.1067 97.981Z" fill="url(#paint13_linear_5401_964)"/>
<path d="M33.5562 27.029L28.0342 24.9277C28.0429 28.9517 31.0159 45.7064 32.0764 49.6671C31.299 45.1793 33.5562 27.029 33.5562 27.029Z" fill="url(#paint14_linear_5401_964)"/>
<path d="M70.7137 29.2149C70.7137 29.2149 51.9432 27.5475 54.0428 13.1722C54.4646 10.2854 61.4309 3.57072 64.68 8.33825C67.2668 12.1354 69.8354 18.5221 70.7137 29.2149Z" fill="url(#paint15_linear_5401_964)"/>
<path d="M64.6796 8.33799C64.6796 8.33799 47.8636 31.0124 22.0187 31.7845C22.0187 31.7845 21.7065 0.0475475 46.2277 0.0475475C46.2277 0.0475475 57.8323 -1.13861 64.6796 8.33799Z" fill="url(#paint16_linear_5401_964)"/>
<path d="M59.2725 23.551C60.6908 25.4199 60.5994 29.8366 60.5994 29.8366C60.5994 29.8366 60.8721 44.5509 60.079 49.0411L62.4174 41.2991C63.7175 37.3234 64.6266 30.7723 64.8252 26.5208L59.2725 23.551Z" fill="url(#paint17_linear_5401_964)"/>
<defs>
<linearGradient id="paint0_linear_5401_964" x1="40.1367" y1="16.2708" x2="40.1367" y2="64.1784" gradientUnits="userSpaceOnUse">
<stop stop-color="#8B5D4F"/>
<stop offset="0.0226" stop-color="#885B4C"/>
<stop offset="0.2284" stop-color="#714B36"/>
<stop offset="0.4486" stop-color="#604026"/>
<stop offset="0.6912" stop-color="#56391D"/>
<stop offset="1" stop-color="#53371A"/>
</linearGradient>
<linearGradient id="paint1_linear_5401_964" x1="53.2287" y1="14.6562" x2="53.2287" y2="64.1784" gradientUnits="userSpaceOnUse">
<stop stop-color="#61472C"/>
<stop offset="0.1249" stop-color="#5D4327"/>
<stop offset="0.5097" stop-color="#553A1D"/>
<stop offset="1" stop-color="#53371A"/>
</linearGradient>
<linearGradient id="paint2_linear_5401_964" x1="4.82129" y1="72.3072" x2="88.3927" y2="72.3072" gradientUnits="userSpaceOnUse">
<stop stop-color="#FFC8AB"/>
<stop offset="0.4098" stop-color="#FDC4A9"/>
<stop offset="0.7795" stop-color="#F5B9A2"/>
<stop offset="1" stop-color="#EEAF9C"/>
</linearGradient>
<linearGradient id="paint3_linear_5401_964" x1="34.0261" y1="35.189" x2="26.6586" y2="27.4443" gradientUnits="userSpaceOnUse">
<stop stop-color="#EBA38D"/>
<stop offset="1" stop-color="#F4BFA6"/>
</linearGradient>
<linearGradient id="paint4_linear_5401_964" x1="59.1875" y1="35.189" x2="66.555" y2="27.4443" gradientUnits="userSpaceOnUse">
<stop stop-color="#EBA38D"/>
<stop offset="1" stop-color="#F4BFA6"/>
</linearGradient>
<linearGradient id="paint5_linear_5401_964" x1="41.253" y1="21.8715" x2="62.3607" y2="45.6558" gradientUnits="userSpaceOnUse">
<stop stop-color="#FFC8AB"/>
<stop offset="0.4098" stop-color="#FDC4A9"/>
<stop offset="0.7795" stop-color="#F5B9A2"/>
<stop offset="1" stop-color="#EEAF9C"/>
</linearGradient>
<linearGradient id="paint6_linear_5401_964" x1="25.7141" y1="50.325" x2="25.7141" y2="104.57" gradientUnits="userSpaceOnUse">
<stop stop-color="#FFE3FF"/>
<stop offset="1" stop-color="#FFC8FF"/>
</linearGradient>
<linearGradient id="paint7_linear_5401_964" x1="29.6566" y1="55.8567" x2="29.6566" y2="97.9901" gradientUnits="userSpaceOnUse">
<stop stop-color="#0F5E8E"/>
<stop offset="1" stop-color="#174F71"/>
</linearGradient>
<linearGradient id="paint8_linear_5401_964" x1="36.7516" y1="50.0937" x2="36.7516" y2="76.7225" gradientUnits="userSpaceOnUse">
<stop stop-color="#FFE3FF"/>
<stop offset="1" stop-color="#FFC8FF"/>
</linearGradient>
<linearGradient id="paint9_linear_5401_964" x1="13.9288" y1="76.2483" x2="13.9288" y2="97.7267" gradientUnits="userSpaceOnUse">
<stop stop-color="#0F5E8E"/>
<stop offset="1" stop-color="#174F71"/>
</linearGradient>
<linearGradient id="paint10_linear_5401_964" x1="67.5003" y1="50.325" x2="67.5003" y2="104.57" gradientUnits="userSpaceOnUse">
<stop stop-color="#FFE3FF"/>
<stop offset="1" stop-color="#FFC8FF"/>
</linearGradient>
<linearGradient id="paint11_linear_5401_964" x1="63.5579" y1="55.8567" x2="63.5579" y2="97.9901" gradientUnits="userSpaceOnUse">
<stop stop-color="#0F5E8E"/>
<stop offset="1" stop-color="#174F71"/>
</linearGradient>
<linearGradient id="paint12_linear_5401_964" x1="56.4625" y1="50.0937" x2="56.4625" y2="76.7225" gradientUnits="userSpaceOnUse">
<stop stop-color="#FFE3FF"/>
<stop offset="1" stop-color="#FFC8FF"/>
</linearGradient>
<linearGradient id="paint13_linear_5401_964" x1="79.2853" y1="76.2483" x2="79.2853" y2="97.7267" gradientUnits="userSpaceOnUse">
<stop stop-color="#0F5E8E"/>
<stop offset="1" stop-color="#174F71"/>
</linearGradient>
<linearGradient id="paint14_linear_5401_964" x1="30.0856" y1="48.3426" x2="31.0662" y2="17.5826" gradientUnits="userSpaceOnUse">
<stop stop-color="#9D766A"/>
<stop offset="0.1548" stop-color="#84614F"/>
<stop offset="0.3327" stop-color="#6E4E38"/>
<stop offset="0.5231" stop-color="#5F4127"/>
<stop offset="0.733" stop-color="#56391D"/>
<stop offset="1" stop-color="#53371A"/>
</linearGradient>
<linearGradient id="paint15_linear_5401_964" x1="69.7329" y1="31.4908" x2="60.1362" y2="14.934" gradientUnits="userSpaceOnUse">
<stop stop-color="#61472C"/>
<stop offset="0.1249" stop-color="#5D4327"/>
<stop offset="0.5097" stop-color="#553A1D"/>
<stop offset="1" stop-color="#53371A"/>
</linearGradient>
<linearGradient id="paint16_linear_5401_964" x1="32.7695" y1="6.43982" x2="46.1622" y2="23.5911" gradientUnits="userSpaceOnUse">
<stop stop-color="#9D766A"/>
<stop offset="1" stop-color="#53371A"/>
</linearGradient>
<linearGradient id="paint17_linear_5401_964" x1="61.3271" y1="47.7767" x2="62.3417" y2="15.949" gradientUnits="userSpaceOnUse">
<stop stop-color="#9D766A"/>
<stop offset="0.1548" stop-color="#84614F"/>
<stop offset="0.3327" stop-color="#6E4E38"/>
<stop offset="0.5231" stop-color="#5F4127"/>
<stop offset="0.733" stop-color="#56391D"/>
<stop offset="1" stop-color="#53371A"/>
</linearGradient>
</defs>
</svg>
