<svg width="35" height="40" viewBox="0 0 35 40" fill="none" xmlns="http://www.w3.org/2000/svg">
<path d="M26.8966 7.43445C27.9107 7.43445 28.7356 6.60969 28.7356 5.59602C28.7356 4.58234 27.9106 3.75758 26.8966 3.75758H26.2298V3.71727C26.2298 2.70352 25.4048 1.87883 24.3908 1.87883H23.0266C22.7629 0.801719 21.7897 0 20.6322 0H5.59756C3.89269 0 2.50573 1.38664 2.50573 3.09094V6.88883H1.21254C0.543908 6.88883 0 7.43258 0 8.10102V13.1111C0 13.7795 0.543908 14.3233 1.21254 14.3233H2.50573V30.0201C2.50573 31.1773 3.30768 32.1502 4.38502 32.4138V33.7776C4.38502 34.5864 4.91049 35.2745 5.63789 35.5198V39.4141C5.63789 39.7377 5.90031 40 6.22399 40C6.54768 40 6.8101 39.7377 6.8101 39.4141V35.5199C7.5375 35.2747 8.06297 34.5866 8.06297 33.7777V32.414C9.14031 32.1503 9.94234 31.1773 9.94234 30.0202V16.5176C9.94234 15.653 10.6459 14.9496 11.5108 14.9496C11.9631 14.9496 12.3933 15.1448 12.6911 15.4851L15.6836 18.9041C16.2707 19.5749 17.1189 19.9597 18.0105 19.9597H20.6321C21.7896 19.9597 22.7628 19.158 23.0265 18.0809H24.3908C25.4048 18.0809 26.2297 17.2562 26.2297 16.2425V16.2022H26.8966C27.9106 16.2022 28.7355 15.3774 28.7355 14.3638C28.7355 13.3501 27.9105 12.5253 26.8966 12.5253H26.2297V11.8184H26.8966C27.9106 11.8184 28.7355 10.9937 28.7355 9.97992C28.7355 8.96617 27.9105 8.14148 26.8966 8.14148H26.2297V7.43461H26.8966V7.43445ZM26.2298 4.92945H26.8966C27.2643 4.92945 27.5634 5.22852 27.5634 5.59602C27.5634 5.96352 27.2642 6.26258 26.8966 6.26258H26.2298V4.92945ZM2.50573 13.1515H1.21254C1.19027 13.1515 1.17222 13.1334 1.17222 13.1112V8.10109C1.17222 8.07883 1.19027 8.06078 1.21254 8.06078H2.50573V13.1515ZM6.89083 33.7777C6.89083 34.1453 6.59168 34.4443 6.22407 34.4443C5.85647 34.4443 5.55732 34.1452 5.55732 33.7777V32.4849H6.89083V33.7777ZM25.0576 16.2424C25.0576 16.61 24.7584 16.909 24.3908 16.909H23.0976V6.8482C23.0976 6.52461 22.8352 6.26227 22.5115 6.26227C22.1878 6.26227 21.9254 6.52461 21.9254 6.8482V17.4949C21.9254 18.2078 21.3453 18.7877 20.6322 18.7877H19.3391V16.2423C19.3391 13.502 17.109 11.2726 14.3678 11.2726H11.2356C8.49442 11.2726 6.2644 13.502 6.2644 16.2423V24.3836C6.2644 24.7072 6.52682 24.9695 6.8505 24.9695C7.17419 24.9695 7.43661 24.7072 7.43661 24.3836V16.2424C7.43661 14.1483 9.14086 12.4445 11.2356 12.4445H14.3678C16.4626 12.4445 18.1668 14.1483 18.1668 16.2424V18.7878H18.0106C17.457 18.7878 16.9305 18.5489 16.566 18.1324L13.5735 14.7134C13.053 14.1187 12.3012 13.7777 11.5108 13.7777C9.9997 13.7777 8.7702 15.0067 8.7702 16.5175V28.8079H8.72988C8.01678 28.8079 7.43661 28.228 7.43661 27.5151V26.8889C7.43661 26.5653 7.17419 26.303 6.8505 26.303C6.52682 26.303 6.2644 26.5653 6.2644 26.8889V27.5151C6.2644 28.8741 7.37042 29.9798 8.72988 29.9798H8.7702V30.0202C8.7702 30.733 8.19003 31.313 7.47694 31.313H4.97113C4.25803 31.313 3.67794 30.733 3.67794 30.0202V3.09094C3.67794 2.03281 4.53905 1.17188 5.59756 1.17188H20.6322C21.3453 1.17188 21.9253 1.75188 21.9253 2.46469V4.34359C21.9253 4.66719 22.1878 4.92953 22.5115 4.92953C22.8351 4.92953 23.0976 4.66719 23.0976 4.34359V3.05063H24.3908C24.7584 3.05063 25.0575 3.34969 25.0575 3.71719V16.2424H25.0576ZM26.8966 13.6971C27.2643 13.6971 27.5634 13.9962 27.5634 14.3637C27.5634 14.7312 27.2642 15.0302 26.8966 15.0302H26.2298V13.6971H26.8966ZM26.8966 9.3132C27.2643 9.3132 27.5634 9.61227 27.5634 9.97984C27.5634 10.3474 27.2642 10.6464 26.8966 10.6464H26.2298V9.3132H26.8966Z" fill="#272727"/>
<path d="M32.4945 5.9115C32.4945 5.08088 32.2616 4.70268 31.9667 4.224C31.6436 3.69861 31.2416 3.04479 31.2416 1.83838C31.2416 1.51479 30.9792 1.25244 30.6555 1.25244C30.3318 1.25244 30.0694 1.51479 30.0694 1.83838C30.0694 3.37619 30.6102 4.25572 30.9685 4.83838C31.2259 5.25635 31.3223 5.41275 31.3223 5.9115C31.3223 6.41025 31.226 6.56666 30.9676 6.98611C30.6099 7.56775 30.0693 8.44682 30.0693 9.98408C30.0693 11.5231 30.6107 12.4016 30.9687 12.9826C31.2259 13.4009 31.3222 13.5573 31.3222 14.0547C31.3222 14.5497 31.2263 14.7055 30.9689 15.1239C30.6107 15.7053 30.0693 16.5838 30.0693 18.1211C30.0693 18.4447 30.3318 18.7071 30.6554 18.7071C30.9791 18.7071 31.2416 18.4447 31.2416 18.1211C31.2416 16.9157 31.6437 16.263 31.9686 15.7358C32.2624 15.2584 32.4944 14.8813 32.4944 14.0546C32.4944 13.2257 32.2617 12.8474 31.9669 12.3682C31.6438 11.8438 31.2416 11.191 31.2416 9.98393C31.2416 8.77807 31.6433 8.12471 31.9666 7.599C32.2616 7.12033 32.4945 6.74221 32.4945 5.9115Z" fill="#272727"/>
<path d="M33.7475 9.98441C33.7475 9.48621 33.8438 9.32988 34.1021 8.91035C34.4598 8.32871 35.0004 7.44957 35.0004 5.91183C35.0004 4.78761 34.7113 4.01527 34.416 3.45371C34.258 3.15332 33.879 3.04941 33.5898 3.22715C33.3271 3.38863 33.2345 3.7255 33.3778 3.99847C33.617 4.45371 33.8281 5.03777 33.8281 5.91183C33.8281 7.11816 33.4262 7.7716 33.103 8.29746C32.8082 8.77621 32.5752 9.15433 32.5752 9.98441C32.5752 10.8133 32.8079 11.1916 33.1027 11.6707C33.4258 12.1953 33.8281 12.8481 33.8281 14.055C33.8281 15.2439 33.4367 15.8952 33.1159 16.4161C32.9473 16.6897 33.0202 17.074 33.2935 17.2431C33.3896 17.3025 33.496 17.3307 33.6012 17.3307C33.7979 17.3307 33.9901 17.2318 34.1008 17.0521C34.4589 16.4707 35.0003 15.5921 35.0003 14.0551C35.0003 12.5163 34.4589 11.6377 34.1009 11.0566C33.8438 10.6383 33.7475 10.4818 33.7475 9.98441Z" fill="#272727"/>
</svg>
