<svg width="40" height="40" viewBox="0 0 40 40" fill="none" xmlns="http://www.w3.org/2000/svg">
<path d="M35.4282 3.99902C36.9982 5.0003 38.2853 7.02273 38.2853 8.88176C38.2853 10.6829 37.4947 12.702 35.9996 13.712C35.4631 14.0744 34.5763 14.462 34.9387 14.9983C35.1652 15.3335 35.5347 15.5143 35.911 15.5143C36.1368 15.5143 36.365 15.4493 36.5661 15.3134C38.7074 13.867 39.9858 11.4626 39.9858 8.88176C39.9858 6.21803 38.6433 3.7716 36.3947 2.33754C35.8489 1.98953 35.1242 2.14978 34.7762 2.69547C34.4279 3.24115 34.8823 3.65094 35.4282 3.99902Z" fill="#272727"/>
<path d="M33.1431 7.99857C33.3904 8.1236 33.5652 8.55896 33.5652 8.83395C33.5652 9.0912 33.423 9.57954 33.2002 9.71286C32.6445 10.045 31.8608 10.5095 32.193 11.0651C32.4125 11.4324 32.8012 11.636 33.2002 11.636C33.4048 11.636 33.6121 11.5824 33.8005 11.4697C34.7241 10.9176 35.2979 9.90756 35.2979 8.83395C35.2979 7.66976 34.6514 6.61959 33.6105 6.09337C33.0328 5.80134 32.3278 6.0328 32.0356 6.61052C31.7434 7.18832 32.5654 7.70655 33.1431 7.99857Z" fill="#272727"/>
<path d="M38.8278 38.2799H31.814C31.1571 38.2799 30.6227 37.1209 30.6227 36.4641V22.6677C30.6227 20.7309 29.0467 19.155 27.1096 19.155C25.1725 19.155 23.5964 20.7308 23.5964 22.6677V36.4641C23.5964 37.1209 23.0621 38.2799 22.4052 38.2799H13.621C12.7275 38.2799 12.0005 36.9283 12.0005 36.0349C12.0005 36.0283 11.9997 36.022 11.9995 36.0154C11.9996 36.0088 12.0005 36.0024 12.0005 35.9959V35.3112H14.2952C14.6089 35.3112 14.9095 35.1855 15.1298 34.9621C15.3501 34.7388 15.4716 34.4364 15.4672 34.1228C15.4063 29.7669 15.807 23.7739 18.0618 19.9598C19.1719 18.0821 20.2639 17.5225 20.5774 17.3937C23.1442 17.3309 25.7745 17.142 28.493 16.7848C29.0764 16.7082 29.5125 16.2111 29.5125 15.6228V1.79476C29.5125 1.20649 29.0764 0.709408 28.493 0.632759C18.5713 -0.670819 9.83596 0.261 1.01946 1.41933C0.43612 1.49598 0 1.99306 0 2.58133V14.8363C0 15.4246 0.43612 15.9217 1.01946 15.9983C2.41441 16.1816 3.80724 16.3589 5.20297 16.5228C5.74372 17.3246 6.64128 19.6156 6.76084 26.0281C6.83836 30.1849 6.54126 34.0089 6.53829 34.047C6.51258 34.3728 6.62417 34.6946 6.84602 34.9347C7.06787 35.1747 7.3799 35.3113 7.70685 35.3113H9.65623V35.9959C9.65623 36.0026 9.65708 36.0089 9.65724 36.0155C9.65716 36.022 9.65623 36.0284 9.65623 36.035C9.65623 38.221 11.4348 39.9993 13.621 39.9993H22.4052C24.3548 39.9993 25.1429 38.4134 25.1429 36.4641V22.282C25.1429 21.6377 26.4651 20.568 27.1096 20.568C27.7541 20.568 29.1429 22.0233 29.1429 22.6677V36.4641C29.1429 38.4134 29.8644 39.9992 31.814 39.9992H38.8278C39.4752 39.9992 40 39.4744 40 38.8272C40 38.1799 39.4752 38.2799 38.8278 38.2799ZM27.7232 15.6228C26.9332 15.7149 24.7766 15.5585 24 15.6228V1.79476C24.7767 1.85906 26.9332 1.70272 27.7232 1.79476V15.6228ZM1.71429 2.85603C8.27977 2.00852 15.4509 1.44128 22.4745 1.79476V15.6228C15.4509 15.9762 8.27977 15.1306 1.71429 14.2831V2.85603ZM16.9853 17.4013C16.7404 17.705 16.4932 18.0462 16.2484 18.4326C15.6567 19.3663 15.1487 20.4391 14.7239 21.6464H14.2888C13.6415 21.6464 13.1167 22.1712 13.1167 22.8184C13.1167 23.3837 13.517 23.8553 14.0495 23.9658C13.7381 25.2811 13.5046 26.7199 13.349 28.2792H8.57143C8.57807 27.5487 8.58581 26.8093 8.57143 26.0281C8.49555 21.9022 8.63965 18.839 7.92292 16.8218C10.8994 17.1253 13.9044 17.3432 16.9853 17.4013ZM8.57143 29.7096H13.1176C13.0815 30.4667 13.1216 32.1616 13.1176 32.9672H8.57143C8.60644 32.3562 8.54033 30.6397 8.57143 29.7096Z" fill="#272727"/>
<path d="M20.0268 11.56V5.85704C20.0268 5.21291 19.507 4.68957 18.8628 4.68512C18.6576 4.68363 18.4519 4.68262 18.2447 4.68262C13.4595 4.68262 9.92427 5.08461 5.83086 5.55005L5.72818 5.5617C5.13585 5.62905 4.68848 6.13012 4.68848 6.7262V10.6908C4.68848 11.2868 5.13593 11.788 5.72818 11.8553L5.83086 11.867C9.92427 12.3325 13.4596 12.7344 18.2447 12.7344C18.4519 12.7344 18.6576 12.7334 18.8628 12.7319C19.507 12.7275 20.0268 12.2041 20.0268 11.56ZM18.2854 11.4261C14.2693 11.3983 9.76236 11.2473 6.28544 10.8548V6.7262C9.76236 6.33373 14.2287 5.88486 18.2447 5.85704L18.2854 11.4261Z" fill="#272727"/>
</svg>
