<svg width="38" height="40" viewBox="0 0 38 40" fill="none" xmlns="http://www.w3.org/2000/svg">
<path d="M6.96759 34.1608C8.25328 34.1608 9.29943 33.1289 9.29943 31.8608C9.29943 30.5926 8.25328 29.5608 6.96759 29.5608C5.68189 29.5608 4.63574 30.5926 4.63574 31.8608C4.63574 33.1289 5.68189 34.1608 6.96759 34.1608ZM6.96759 30.6188C7.66176 30.6188 8.22674 31.1761 8.22674 31.8608C8.22674 32.5455 7.66176 33.1027 6.96759 33.1027C6.27341 33.1027 5.70843 32.5455 5.70843 31.8608C5.70843 31.1761 6.27341 30.6188 6.96759 30.6188Z" fill="black"/>
<path d="M35.4812 7.3667C34.0928 7.3667 32.9629 8.48087 32.9629 9.8506C32.9629 11.2203 34.0928 12.3345 35.4812 12.3345C36.8696 12.3345 37.9995 11.2203 37.9995 9.8506C37.9995 8.48087 36.8696 7.3667 35.4812 7.3667ZM35.4812 11.2765C34.6844 11.2765 34.0356 10.6369 34.0356 9.8506C34.0356 9.06431 34.6844 8.42473 35.4812 8.42473C36.278 8.42473 36.9268 9.06431 36.9268 9.8506C36.9268 10.6369 36.278 11.2765 35.4812 11.2765Z" fill="black"/>
<path d="M32.5691 30.6189C33.4302 30.6189 34.1313 29.9273 34.1313 29.078C34.1313 28.2287 33.4302 27.5371 32.5691 27.5371C31.708 27.5371 31.0068 28.2287 31.0068 29.078C31.0068 29.9273 31.708 30.6189 32.5691 30.6189ZM32.5691 28.5951C32.8393 28.5951 33.0586 28.8114 33.0586 29.078C33.0586 29.3446 32.8393 29.5609 32.5691 29.5609C32.2988 29.5609 32.0795 29.3446 32.0795 29.078C32.0795 28.8114 32.2988 28.5951 32.5691 28.5951Z" fill="black"/>
<path d="M3.63744 18.4514C3.63744 17.4623 2.8214 16.6577 1.81855 16.6577C0.815692 16.6577 0 17.4623 0 18.4514C0 19.4406 0.815692 20.2458 1.81855 20.2458C2.8214 20.2458 3.63744 19.4406 3.63744 18.4514ZM1.81855 19.1874C1.40721 19.1874 1.07269 18.8571 1.07269 18.4514C1.07269 18.0457 1.40721 17.7157 1.81855 17.7157C2.22988 17.7157 2.56475 18.0457 2.56475 18.4514C2.56475 18.8571 2.22988 19.1874 1.81855 19.1874Z" fill="black"/>
<path d="M7.53978 4.49855C8.40122 4.49855 9.10203 3.80731 9.10203 2.95765C9.10203 2.10798 8.40122 1.41675 7.53978 1.41675C6.67835 1.41675 5.97754 2.10798 5.97754 2.95765C5.97754 3.80731 6.67835 4.49855 7.53978 4.49855ZM7.53978 2.47478C7.8097 2.47478 8.02934 2.69142 8.02934 2.95765C8.02934 3.22388 7.8097 3.44051 7.53978 3.44051C7.26987 3.44051 7.05023 3.22388 7.05023 2.95765C7.05023 2.69142 7.26987 2.47478 7.53978 2.47478Z" fill="black"/>
<path d="M30.2124 36.3554H27.4951C25.349 36.3554 23.5886 34.7136 23.427 32.637C26.4224 30.5903 27.7176 27.2249 28.2489 24.2726C28.2493 24.2726 28.2497 24.2728 28.25 24.2728C29.8137 24.2728 31.0861 22.6885 31.0861 20.7408C31.0861 20.0119 30.9049 19.3372 30.5986 18.776V14.0971C30.5986 10.1312 28.1579 6.71937 24.6813 5.23969C24.5595 2.64975 22.5673 0.512461 19.9491 0.0100065C19.6162 -0.0538821 19.3039 0.196204 19.3039 0.530758V0.546773C19.3039 0.807622 19.4992 1.01763 19.7587 1.06817C21.7381 1.45391 23.2791 2.95757 23.5676 4.84732C22.8661 4.64433 22.1337 4.51294 21.3777 4.46928C21.0748 4.4518 20.8215 4.70185 20.8215 5.00106C20.8215 5.28558 21.0511 5.50954 21.3391 5.52624C25.8989 5.79127 29.5259 9.53421 29.5259 14.0971V17.6133C29.1646 17.3856 28.7641 17.2409 28.335 17.2247C27.9773 15.4979 27.1419 13.9494 25.9867 12.6977L26.3147 11.7271C26.4081 11.4506 26.2566 11.1517 25.9762 11.0595L25.9733 11.0586C25.6929 10.9664 25.3899 11.1158 25.2964 11.3924L25.1322 11.8781C23.4056 10.4076 21.1705 9.51712 18.7676 9.51712C16.3646 9.51712 14.1294 10.4076 12.4028 11.8778L12.2387 11.3924C12.1453 11.1158 11.8423 10.9664 11.5619 11.0586L11.559 11.0595C11.2786 11.1517 11.1271 11.4506 11.2206 11.7271L11.5484 12.6972C10.3927 13.9492 9.55702 15.498 9.19959 17.2248C8.7707 17.2411 8.37041 17.3858 8.00927 17.6133V14.0971C8.00927 9.53421 11.6363 5.79127 16.1961 5.52624C16.4841 5.50954 16.7137 5.28558 16.7137 5.00106C16.7137 4.70185 16.4604 4.4518 16.1575 4.46928C15.4015 4.51294 14.6691 4.64433 13.9676 4.84732C14.2561 2.95757 15.7971 1.45391 17.7765 1.06817C18.036 1.01763 18.2313 0.807622 18.2313 0.546773V0.530758C18.2313 0.196204 17.919 -0.0538819 17.586 0.0100065C14.9679 0.512461 12.9757 2.64975 12.8539 5.23969C9.37728 6.71937 6.93657 10.1312 6.93657 14.0971V18.776C6.6303 19.3373 6.44911 20.0119 6.44911 20.7408C6.44911 22.6734 7.70233 24.2439 9.28487 24.2671C9.81275 27.2146 11.1068 30.587 14.1082 32.6372C13.9466 34.7137 12.1862 36.3554 10.0401 36.3554H7.32277C5.18145 36.3554 3.23969 37.4341 2.13133 39.2045C1.97438 39.4552 2.05914 39.7844 2.32631 39.9161L2.39331 39.9492C2.63154 40.0667 2.91062 39.9725 3.05126 39.7494C3.96625 38.2976 5.56293 37.4135 7.32277 37.4135H10.0401C12.5694 37.4135 14.6744 35.607 15.11 33.2342C16.1307 33.7648 17.3076 34.1651 18.688 34.3692C18.7145 34.373 18.8207 34.373 18.8472 34.3692C20.2276 34.1651 21.4045 33.7647 22.4252 33.2341C22.8607 35.6069 24.9657 37.4135 27.4951 37.4135H30.2124C31.9723 37.4135 33.5689 38.2976 34.4839 39.7494C34.6246 39.9725 34.9037 40.0667 35.1419 39.9492L35.2089 39.9161C35.4761 39.7844 35.5608 39.4552 35.4039 39.2045C34.2955 37.4341 32.3537 36.3554 30.2124 36.3554ZM28.4874 18.3057C29.3466 18.47 30.0134 19.4935 30.0134 20.7408C30.0134 22.0612 29.2898 23.1457 28.3506 23.2116C28.384 22.6238 28.4419 21.5781 28.544 19.6955C28.5447 19.6818 28.5447 19.668 28.5447 19.6542C28.5418 19.549 28.5234 18.868 28.4874 18.3057ZM7.52181 20.7408C7.52181 19.4935 8.18857 18.4699 9.04782 18.3057C9.01181 18.8717 8.99361 19.5615 8.99117 19.6955C9.09252 21.5641 9.1504 22.6091 9.18409 23.2006C8.2598 23.1255 7.52181 22.0564 7.52181 20.7408ZM18.7676 33.3108C12.9097 32.4043 10.9242 27.6552 10.2964 23.855C10.2845 23.7114 10.1498 21.255 10.0632 19.6804C10.0729 19.2898 10.11 18.2022 10.1644 17.8577C10.802 13.7059 14.5006 10.5752 18.7676 10.5752C23.0346 10.5752 26.7332 13.7059 27.3708 17.8608C27.4245 18.1963 27.4616 19.253 27.4713 19.6597C27.384 21.276 27.2507 23.7121 27.243 23.8206C26.6109 27.6549 24.6255 32.4043 18.7676 33.3108Z" fill="black"/>
</svg>
