<svg width="48" height="40" viewBox="0 0 48 40" fill="none" xmlns="http://www.w3.org/2000/svg">
<path d="M43.7349 25.3354H38.4823C38.6183 25.1465 38.7351 24.9436 38.8258 24.7267C39.3592 23.4528 38.9177 22.0728 37.7006 21.2113L31.4661 16.7974C30.7472 13.9792 27.817 11.8625 24.3201 11.8625C20.9587 11.8625 18.1213 13.8184 17.2677 16.4731L15.6994 11.7625C17.941 10.6884 19.4611 8.63308 19.4611 6.27798C19.4611 2.81637 16.1791 0 12.1448 0C8.11041 0 4.82831 2.81613 4.82831 6.27782C4.82831 7.61103 5.31666 8.84763 6.14578 9.86533C4.65909 11.0772 3.81694 12.7427 3.81694 14.5235V25.3558C1.67503 25.5486 0 27.1072 0 28.9953C0 31.0077 1.90275 32.6455 4.24566 32.6547V34.8182C4.24566 35.2293 4.63406 35.5626 5.11312 35.5626C5.59219 35.5626 5.98059 35.2293 5.98059 34.8182V32.6549H8.16384V38.5112H5.98059V38.3606C5.98059 37.9495 5.59219 37.6163 5.11312 37.6163C4.63406 37.6163 4.24566 37.9495 4.24566 38.3606V39.2556C4.24566 39.6667 4.63406 40 5.11312 40H9.03131C9.51038 40 9.89878 39.6667 9.89878 39.2556V38.5567L23.847 32.7383L38.0213 38.6511C38.0477 38.6621 38.0744 38.6712 38.1012 38.6798V39.2556C38.1012 39.6667 38.4896 40 38.9687 40H42.8869C43.3659 40 43.7543 39.6667 43.7543 39.2556V32.6545C46.0973 32.6454 48 31.0076 48 28.9952C48 26.9772 46.0868 25.3354 43.7349 25.3354ZM31.5933 18.8175L36.5965 22.3596C37.3797 22.914 37.4182 23.6858 37.1932 24.2233C36.9681 24.761 36.3657 25.3354 35.35 25.3354H25.1875V24.3728C26.5489 24.234 27.796 23.7737 28.824 23.0825C28.8964 23.0992 28.9721 23.1091 29.0507 23.1091H32.2121C32.6912 23.1091 33.0796 22.7758 33.0796 22.3648C33.0796 21.9537 32.6912 21.6204 32.2121 21.6204H30.4059C31.0445 20.8009 31.4641 19.846 31.5933 18.8175ZM24.3201 13.3512C27.3976 13.3512 29.9015 15.4997 29.9015 18.1405C29.9015 20.7814 27.3977 22.9298 24.3201 22.9298C21.2424 22.9298 18.7387 20.7814 18.7387 18.1405C18.7387 15.4997 21.2425 13.3512 24.3201 13.3512ZM18.2341 21.6204H16.428C15.9489 21.6204 15.5605 21.9537 15.5605 22.3648C15.5605 22.7758 15.9489 23.1091 16.428 23.1091H19.4236C19.5453 23.1091 19.661 23.0875 19.766 23.0487C20.8032 23.7588 22.069 24.232 23.4526 24.373V25.3356H13.2896C12.2741 25.3355 11.6717 24.761 11.4465 24.2234C11.2214 23.6859 11.2599 22.914 12.0431 22.3597L17.0468 18.8172C17.1759 19.8459 17.5956 20.8008 18.2341 21.6204ZM12.1446 1.48847C15.2221 1.48847 17.726 3.6369 17.726 6.27774C17.726 8.91858 15.2221 11.067 12.1446 11.067C9.06703 11.067 6.56316 8.91866 6.56316 6.27774C6.56316 3.6369 9.06703 1.48847 12.1446 1.48847ZM5.55178 14.5234C5.55178 13.1715 6.18291 11.9053 7.30003 10.9766C8.59153 11.9582 10.2878 12.5557 12.1446 12.5557C12.816 12.5557 13.4658 12.4762 14.0839 12.3302L15.877 17.7153L13.2395 19.5825L11.9077 16.1421C11.7566 15.752 11.2655 15.5407 10.811 15.6704C10.3563 15.8 10.1102 16.2213 10.2612 16.6114L11.8047 20.5984L10.9391 21.2113C9.72225 22.0729 9.2805 23.4528 9.81394 24.7268C9.90469 24.9437 10.0214 25.1465 10.1574 25.3355H5.55178V14.5234ZM9.89878 36.9014V32.6549H20.0786L9.89878 36.9014ZM42.0194 38.5112H39.8362V32.6549H42.0194V38.5112ZM43.7349 31.1662H36.3181C35.839 31.1662 35.4506 31.4995 35.4506 31.9106C35.4506 32.3216 35.839 32.6549 36.3181 32.6549H38.1014V37.0292L27.6155 32.6549H31.6371C32.1161 32.6549 32.5045 32.3216 32.5045 31.9106C32.5045 31.4995 32.1161 31.1662 31.6371 31.1662H4.26506C2.86997 31.1662 1.73494 30.1923 1.73494 28.9952C1.73494 27.7981 2.86997 26.8241 4.26506 26.8241H13.2896H35.3499H43.7349C45.13 26.8241 46.2651 27.7981 46.2651 28.9952C46.2651 30.1923 45.13 31.1662 43.7349 31.1662Z" fill="#272727"/>
</svg>
