<svg width="34" height="40" viewBox="0 0 34 40" fill="none" xmlns="http://www.w3.org/2000/svg">
<path d="M20.7512 18.712C20.9378 18.4459 20.8695 18.0815 20.5988 17.8982C20.328 17.7146 19.9575 17.7818 19.771 18.0479C19.546 18.3688 19.1301 18.5584 18.7354 18.5199C18.4178 18.4889 18.1035 18.3029 17.9152 18.0346C17.7284 17.7686 17.3577 17.7017 17.0873 17.8854C16.8167 18.069 16.7487 18.4334 16.9355 18.6994C17.3227 19.2511 17.9516 19.6194 18.6174 19.6845C19.4401 19.7652 20.282 19.3812 20.7512 18.712Z" fill="#272727"/>
<path d="M24.3077 24.0175C24.0371 23.8338 23.6664 23.9007 23.4797 24.1667C23.2362 24.5136 22.8291 24.7541 22.4173 24.7944C21.9062 24.8444 21.3663 24.5985 21.0747 24.1824C20.8881 23.9164 20.5176 23.8492 20.2468 24.0326C19.9762 24.2161 19.9078 24.5804 20.0944 24.8465C20.3383 25.1945 20.6722 25.4782 21.0533 25.6727C21.5417 25.9219 21.9918 26.012 22.5352 25.9589C23.2968 25.8844 24.016 25.4629 24.4594 24.8314C24.6462 24.5654 24.5783 24.201 24.3077 24.0175Z" fill="#272727"/>
<path d="M33.8366 31.9291C33.6103 31.6946 33.2335 31.6849 32.9951 31.9072L32.4113 32.4516L29.7042 29.6454L30.5319 28.8735C30.7478 28.6723 30.8709 28.4005 30.8788 28.1082C30.8867 27.8158 30.7782 27.538 30.5735 27.3258L29.8042 26.5283C29.5995 26.3161 29.323 26.1951 29.0257 26.1873C28.7291 26.1795 28.4457 26.2861 28.23 26.4873L28.1754 26.5383L27.015 25.3355C26.7887 25.101 26.4119 25.0912 26.1735 25.3136C25.935 25.536 25.9251 25.9064 26.1513 26.1409L27.3117 27.3437L25.0485 29.454L20.346 24.5794L22.6092 22.4691L24.2901 24.2116C24.5164 24.446 24.8932 24.4558 25.1316 24.2335C25.3701 24.0111 25.38 23.6407 25.1538 23.4062L24.0385 22.25C24.106 21.8357 24.1514 21.4179 24.1739 20.9964C24.1831 20.8266 24.1896 20.6189 24.1942 20.3879L24.9343 19.1711C25.2487 18.6542 25.5252 18.1295 25.7564 17.6113C27.1066 14.5854 26.031 10.8359 24.3662 8.46226C23.0173 6.53887 21.1354 5.15281 18.8351 4.36518C18.9043 3.25867 18.6418 2.33131 18.0467 1.59962C16.7542 0.0104691 14.3852 -0.00263874 14.1821 0.000170043C13.9788 -0.00256072 11.6099 0.010547 10.3175 1.59962C9.7429 2.3061 9.47927 3.19547 9.52395 4.25181C9.23143 4.34856 8.95082 4.46434 8.67925 4.59339C6.95581 5.34825 4.26054 7.04187 2.7786 10.5894C2.77717 10.5927 2.77598 10.5959 2.77463 10.5992C2.34998 11.6696 2.07976 12.9022 2.01365 14.0699C1.93795 15.4071 2.12833 16.6302 2.56425 17.6071C2.7959 18.1261 3.07286 18.6516 3.38767 19.1691L4.17079 20.4566C4.17547 20.6443 4.18182 20.8258 4.19095 20.9965C4.34919 23.9552 5.60719 26.7253 8.03684 29.4651C8.56466 30.0603 9.19223 30.6421 9.90551 31.2011L10.037 32.6021C10.038 32.6113 10.0389 32.6203 10.0403 32.6294C10.134 33.2884 9.7133 33.9209 9.06168 34.1006L2.7559 35.8403C1.13333 36.288 0 37.758 0 39.4148C0 39.738 0.266408 40 0.595192 40H27.769C28.0977 40 28.3642 39.738 28.3642 39.4148C28.3642 37.758 27.2309 36.288 25.6083 35.8403L19.3025 34.1006C18.6509 33.9209 18.2302 33.2883 18.3239 32.6294C18.3253 32.6204 18.3262 32.6113 18.3272 32.6021L18.4586 31.2016C19.1722 30.6425 19.8 30.0605 20.328 29.4651C20.8459 28.881 21.3102 28.2954 21.7224 27.707L24.1849 30.2596L24.1302 30.3106C23.9143 30.5118 23.7913 30.7837 23.7833 31.076C23.7755 31.3684 23.8839 31.6462 24.0886 31.8583L24.8578 32.6558C25.0625 32.868 25.339 32.9891 25.6364 32.9969C25.6465 32.9972 25.6566 32.9973 25.6667 32.9973C25.9528 32.9973 26.2238 32.8913 26.4322 32.6968L27.26 31.925L29.9671 34.7312L29.3832 35.2756C29.1447 35.4981 29.1347 35.8684 29.361 36.1029C29.478 36.2242 29.6353 36.2854 29.7929 36.2854C29.94 36.2854 30.0873 36.2321 30.2024 36.1248L33.8144 32.7567C34.0529 32.534 34.0628 32.1636 33.8366 31.9291ZM19.5268 23.7303L17.8197 21.9607L20.083 19.8505L21.79 21.62L19.5268 23.7303ZM17.6303 20.5244L16.7674 19.6299C16.7182 19.579 16.7205 19.4982 16.7723 19.45L17.5882 18.6892C17.6131 18.6659 17.6452 18.6543 17.6772 18.6543C17.7116 18.6543 17.7458 18.6676 17.7712 18.694L18.6342 19.5884L17.6303 20.5244ZM11.2436 2.33482C12.1695 1.19063 14.0444 1.17042 14.1663 1.17042H14.1724C14.1793 1.17042 14.1861 1.1705 14.193 1.17042C14.2121 1.17065 16.1707 1.16706 17.117 2.33053C17.4742 2.76971 17.6535 3.33638 17.6555 4.02274C17.047 3.87614 16.4141 3.76675 15.7574 3.69716C14.9293 3.60938 14.1172 3.57747 13.3439 3.60236C12.4263 3.63177 11.5455 3.74217 10.71 3.92802C10.7275 3.28629 10.9052 2.75294 11.2436 2.33482ZM9.90352 5.36097C10.9344 5.02017 12.0138 4.83783 13.0987 4.78197C17.0015 4.58099 21.0815 5.84088 23.3861 9.12661C25.4364 12.0498 25.5064 15.2582 24.6662 17.1412C24.4364 17.656 24.1669 18.1523 23.8739 18.634C23.381 16.7711 22.4545 15.0088 21.1086 13.3779C19.6089 11.5607 17.5674 9.91588 15.2049 8.62119C13.0423 7.43612 10.5686 6.7464 8.05104 6.62664C7.88717 6.61884 7.73051 6.61291 7.581 6.60885C8.33705 6.09773 9.07485 5.63498 9.90352 5.36097ZM18.9808 35.2272L25.2866 36.967C26.2018 37.2195 26.8896 37.9468 27.1037 38.8295H1.2603C1.47441 37.9469 2.16221 37.2195 3.07738 36.967L9.38316 35.2272C10.6008 34.8914 11.3886 33.7128 11.221 32.4817L11.1829 32.0756C12.1182 32.5821 13.1501 32.836 14.1823 32.836C15.2142 32.836 16.2459 32.5822 17.1811 32.0759L17.143 32.4817C16.9754 33.7128 17.7632 34.8913 18.9808 35.2272ZM19.4306 28.6958C18.8181 29.3865 18.0544 30.0624 17.1607 30.7046C15.3794 31.9847 12.9856 31.9848 11.2041 30.7046C10.3102 30.0624 9.54648 29.3865 8.93407 28.6958C6.68607 26.1608 5.5233 23.6222 5.37958 20.9349C5.36609 20.683 5.35848 20.4053 5.35475 20.114C5.75662 17.4657 7.02866 14.9092 8.95185 12.8943C9.17683 12.6586 9.16485 12.2883 8.92518 12.0672C8.68536 11.846 8.30864 11.8578 8.08382 12.0934C6.31618 13.9452 5.05453 16.2214 4.44378 18.6251L4.40918 18.5683C4.11992 18.0926 3.86589 17.611 3.65424 17.1368C2.85216 15.339 3.19031 12.7749 3.88168 11.029C4.38744 9.81999 5.08691 8.76288 5.96962 7.86555C6.1727 7.80953 6.69551 7.73377 7.99359 7.79556C9.65592 7.87468 11.2963 8.22258 12.8266 8.81172C11.9338 9.18123 11.0705 9.65467 10.2507 10.2286C9.98288 10.416 9.92042 10.7814 10.111 11.0446C10.3017 11.3079 10.6732 11.3694 10.9411 11.1819C12.0155 10.4298 13.1702 9.86845 14.3671 9.50681C14.4534 9.55191 14.54 9.5967 14.6253 9.64343C21.1419 13.2146 22.6683 17.8656 22.9981 20.3202C23.0131 20.4317 23.01 20.5449 23.0037 20.657C22.9946 20.8183 22.982 20.9792 22.9673 21.1397C22.5478 20.7049 20.8988 18.9954 20.8988 18.9954C20.5334 18.6167 19.9577 18.5506 19.5183 18.8043L18.6348 17.8885C18.1417 17.3773 17.323 17.3494 16.7939 17.8188L14.4356 15.3741C14.2093 15.1396 13.8325 15.1299 13.5941 15.3522C13.3556 15.5746 13.3456 15.945 13.5719 16.1795L15.9303 18.6241C15.4255 19.1188 15.4105 19.9239 15.9036 20.4351L16.787 21.3508C16.672 21.5212 16.6067 21.7195 16.601 21.9289C16.5931 22.2232 16.7022 22.5029 16.9083 22.7165L20.8818 26.8355C20.4419 27.4869 19.9531 28.1066 19.4306 28.6958ZM25.6687 31.7955L25.0052 31.1075L28.9936 27.3886L29.6571 28.0764L25.6687 31.7955ZM30.8307 33.9255L28.1236 31.1194L28.8406 30.4508L31.5477 33.257L30.8307 33.9255Z" fill="#272727"/>
</svg>
