         <svg width="131" height="102" viewBox="0 0 131 102" fill="none" xmlns="http://www.w3.org/2000/svg">
            <path d="M16.4921 29.1175C-1.7556 42.7345 -1.24872 66.4447 1.28569 76.5977C0.5701 58.3223 7.69624 45.8401 11.3488 41.8834C30.866 16.6358 69.491 27.3258 81.3431 39.4198C67.4784 17.9194 39.3018 12.0964 16.4921 29.1175Z" fill="white"/>
            <path d="M19.5395 17.5138V25.597C23.3279 22.9026 33.668 17.6036 44.7213 17.9628C55.7746 18.3221 65.2233 23.202 68.5661 25.597V19.31C66.7833 17.6934 59.9493 15.1936 56.7551 14.1457C58.7162 13.9661 65.7433 16.0169 69.0117 17.0647L80.377 13.9212L43.8299 0L7.72852 14.1457L19.5395 17.5138Z" fill="white"/>
            <path d="M129.641 56.9634C128.746 57.8615 127.639 58.3105 126.321 58.3105C125.002 58.3105 123.895 57.8615 123 56.9634C122.106 56.0654 121.658 54.9546 121.658 53.6311C121.658 52.3194 122.106 51.2146 123 50.3165C123.907 49.4066 125.014 48.9517 126.321 48.9517C127.628 48.9517 128.734 49.4066 129.641 50.3165C130.548 51.2264 131.001 52.3313 131.001 53.6311C131.001 54.9428 130.548 56.0535 129.641 56.9634ZM124.608 55.3859C125.067 55.8467 125.638 56.0772 126.321 56.0772C127.004 56.0772 127.575 55.8467 128.034 55.3859C128.493 54.925 128.723 54.3401 128.723 53.6311C128.723 52.9221 128.493 52.3372 128.034 51.8763C127.575 51.4155 127.004 51.185 126.321 51.185C125.638 51.185 125.067 51.4155 124.608 51.8763C124.16 52.349 123.936 52.9339 123.936 53.6311C123.936 54.3283 124.16 54.9132 124.608 55.3859Z" fill="white"/>
            <path d="M116.201 48.9517C117.39 48.9517 118.403 49.4066 119.239 50.3165C120.086 51.2264 120.51 52.3313 120.51 53.6311C120.51 54.9546 120.086 56.0654 119.239 56.9634C118.414 57.8615 117.402 58.3105 116.201 58.3105C114.965 58.3105 114.011 57.8792 113.34 57.0166V61.6074H111.062V49.1998H113.34V50.2456C114.011 49.383 114.965 48.9517 116.201 48.9517ZM114.029 55.4391C114.488 55.8999 115.071 56.1303 115.777 56.1303C116.483 56.1303 117.066 55.8999 117.525 55.4391C117.996 54.9664 118.232 54.3637 118.232 53.6311C118.232 52.8985 117.996 52.3017 117.525 51.8409C117.066 51.3682 116.483 51.1319 115.777 51.1319C115.071 51.1319 114.488 51.3682 114.029 51.8409C113.569 52.3017 113.34 52.8985 113.34 53.6311C113.34 54.3637 113.569 54.9664 114.029 55.4391Z" fill="white"/>
            <path d="M99.6289 45.6553H108.866V58.0629H106.428V47.995H102.066V58.0629H99.6289V45.6553Z" fill="white"/>
            <path d="M86.0684 49.2002H93.8921V51.3981H91.137V58.0628H88.8588V51.3981H86.0684V49.2002Z" fill="white"/>
            <path d="M81.362 48.9517C82.5511 48.9517 83.5637 49.4066 84.3997 50.3165C85.2474 51.2264 85.6712 52.3313 85.6712 53.6311C85.6712 54.9546 85.2474 56.0654 84.3997 56.9634C83.5755 57.8615 82.5629 58.3105 81.362 58.3105C80.1257 58.3105 79.172 57.8792 78.5009 57.0166V61.6074H76.2227V49.1998H78.5009V50.2456C79.172 49.383 80.1257 48.9517 81.362 48.9517ZM79.1897 55.4391C79.6489 55.8999 80.2317 56.1303 80.9381 56.1303C81.6446 56.1303 82.2274 55.8999 82.6865 55.4391C83.1575 54.9664 83.393 54.3637 83.393 53.6311C83.393 52.8985 83.1575 52.3017 82.6865 51.8409C82.2274 51.3682 81.6446 51.1319 80.9381 51.1319C80.2317 51.1319 79.6489 51.3682 79.1897 51.8409C78.7305 52.3017 78.5009 52.8985 78.5009 53.6311C78.5009 54.3637 78.7305 54.9664 79.1897 55.4391Z" fill="white"/>
            <path d="M74.5443 54.5705H67.8862C68.1805 55.6813 69.0106 56.2367 70.3764 56.2367C71.2476 56.2367 71.907 55.9413 72.3544 55.3504L74.1911 56.4139C73.3198 57.6783 72.0365 58.3105 70.341 58.3105C68.8811 58.3105 67.7096 57.8674 66.8265 56.9812C65.9435 56.0949 65.502 54.9782 65.502 53.6311C65.502 52.3076 65.9376 51.1968 66.8089 50.2988C67.6684 49.4007 68.7869 48.9517 70.1644 48.9517C71.4713 48.9517 72.5369 49.4007 73.361 50.2988C74.2088 51.1968 74.6326 52.3076 74.6326 53.6311C74.6326 53.8793 74.6032 54.1924 74.5443 54.5705ZM67.8509 52.798H72.3544C72.2249 52.219 71.96 51.7759 71.5596 51.4686C71.1711 51.1614 70.706 51.0078 70.1644 51.0078C69.5522 51.0078 69.0459 51.1673 68.6456 51.4864C68.2453 51.7936 67.9804 52.2308 67.8509 52.798Z" fill="white"/>
            <path d="M55.8027 49.2002H63.8738V58.0628H61.5955V51.3449H58.081V58.0628H55.8027V49.2002Z" fill="white"/>
            <path d="M50.5375 58.3105C49.207 58.3105 48.0944 57.8615 47.1996 56.9634C46.3165 56.0654 45.875 54.9546 45.875 53.6311C45.875 52.3076 46.3165 51.1968 47.1996 50.2988C48.0944 49.4007 49.207 48.9517 50.5375 48.9517C51.397 48.9517 52.1799 49.1585 52.8864 49.572C53.5928 49.9856 54.1285 50.541 54.4935 51.2382L52.5332 52.3903C52.3566 52.024 52.0858 51.7345 51.7208 51.5218C51.3675 51.3091 50.9672 51.2028 50.5198 51.2028C49.8369 51.2028 49.2718 51.4332 48.8244 51.894C48.377 52.3431 48.1533 52.9221 48.1533 53.6311C48.1533 54.3165 48.377 54.8955 48.8244 55.3682C49.2718 55.8172 49.8369 56.0417 50.5198 56.0417C50.979 56.0417 51.3852 55.9413 51.7384 55.7404C52.1034 55.5277 52.3742 55.2382 52.5508 54.8719L54.5288 56.0063C54.1403 56.7153 53.5869 57.2766 52.8687 57.6902C52.1623 58.1037 51.3852 58.3105 50.5375 58.3105Z" fill="white"/>
            <path d="M42.1792 53.5783L45.835 58.0628H43.1859L39.9716 54.0392V58.0628H37.6934V49.2002H39.9716V53.0997L43.0093 49.2002H45.7291L42.1792 53.5783Z" fill="white"/>
            <path d="M29.6635 45.4067C31.5238 45.4067 33.0603 46.0271 34.273 47.2679C35.4857 48.485 36.0921 50.0153 36.0921 51.8587C36.0921 53.6903 35.4857 55.2206 34.273 56.4495C33.0603 57.6903 31.5238 58.3106 29.6635 58.3106C28.545 58.3106 27.5148 58.0507 26.5728 57.5307C25.6309 56.999 24.8951 56.2841 24.3652 55.386L26.4669 54.163C26.7612 54.7065 27.191 55.1378 27.7561 55.4569C28.333 55.7641 28.9688 55.9178 29.6635 55.9178C30.6525 55.9178 31.4885 55.6578 32.1714 55.1378C32.866 54.6061 33.3193 53.8912 33.5312 52.9931H28.021V50.7066H33.5312C33.3193 49.8085 32.866 49.0995 32.1714 48.5795C31.4885 48.0478 30.6525 47.7819 29.6635 47.7819C28.9688 47.7819 28.3389 47.9414 27.7738 48.2605C27.2086 48.5677 26.773 48.999 26.4669 49.5544L24.3652 48.3314C24.8951 47.4333 25.6309 46.7243 26.5728 46.2044C27.5265 45.6726 28.5568 45.4067 29.6635 45.4067Z" fill="white"/>
            <path d="M107.764 66.7866H109.174V70.1101H108.605V68.9136H108.121L107.194 70.1101H106.492L107.459 68.8804C107.207 68.8184 107.004 68.6943 106.85 68.5082C106.7 68.3221 106.625 68.1049 106.625 67.8568C106.625 67.551 106.733 67.2962 106.949 67.0924C107.166 66.8885 107.437 66.7866 107.764 66.7866ZM107.784 68.3952H108.605V67.325H107.784C107.616 67.325 107.475 67.376 107.36 67.4779C107.249 67.5754 107.194 67.7039 107.194 67.8634C107.194 68.0185 107.249 68.147 107.36 68.2489C107.475 68.3464 107.616 68.3952 107.784 68.3952Z" fill="white"/>
            <path d="M103.523 69.1197L105.357 66.7866H105.821V70.1101H105.251V67.777L103.417 70.1101H102.953V66.7866H103.523V69.1197Z" fill="white"/>
            <path d="M101.457 66.7866H102.073V70.1101H101.51V67.6973L100.457 69.3989H100.384L99.3313 67.6973V70.1101H98.7617V66.7866H99.3776L100.417 68.4683L101.457 66.7866Z" fill="white"/>
            <path d="M98.0792 68.7142H95.3043C95.3617 69.0067 95.4963 69.2371 95.7083 69.4055C95.9202 69.5695 96.1851 69.6514 96.503 69.6514C96.9401 69.6514 97.258 69.4897 97.4567 69.1662L97.9468 69.4454C97.6201 69.9461 97.1344 70.1965 96.4898 70.1965C95.9688 70.1965 95.5405 70.0325 95.2049 69.7046C94.8782 69.3678 94.7148 68.9491 94.7148 68.4483C94.7148 67.9432 94.876 67.5266 95.1983 67.1987C95.5206 66.8664 95.9379 66.7002 96.45 66.7002C96.9357 66.7002 97.3309 66.873 97.6355 67.2187C97.9446 67.5554 98.0991 67.9675 98.0991 68.455C98.0991 68.5392 98.0925 68.6256 98.0792 68.7142ZM96.45 67.2452C96.1454 67.2452 95.8893 67.3317 95.6818 67.5045C95.4787 67.6773 95.3528 67.9122 95.3043 68.209H97.5163C97.4677 67.9033 97.3463 67.6662 97.152 67.4978C96.9578 67.3294 96.7238 67.2452 96.45 67.2452Z" fill="white"/>
            <path d="M93.9518 66.7866V69.5584H94.4088V71.0008H93.8393V70.1101H91.3557V71.0008H90.7861V69.5584H91.1901C91.4021 69.2659 91.508 68.856 91.508 68.3287V66.7866H93.9518ZM91.8458 69.5584H93.3823V67.325H92.0776V68.3287C92.0776 68.8162 92.0003 69.226 91.8458 69.5584Z" fill="white"/>
            <path d="M89.6548 67.3582V66.7866H90.231V70.1101H89.6548V69.5384C89.3723 69.9771 88.955 70.1965 88.4031 70.1965C87.9351 70.1965 87.5399 70.0281 87.2176 69.6913C86.8909 69.3501 86.7275 68.9358 86.7275 68.4483C86.7275 67.9653 86.8909 67.5532 87.2176 67.212C87.5444 66.8708 87.9395 66.7002 88.4031 66.7002C88.955 66.7002 89.3723 66.9195 89.6548 67.3582ZM88.476 69.6381C88.8115 69.6381 89.0919 69.5251 89.3171 69.2991C89.5422 69.0643 89.6548 68.7807 89.6548 68.4483C89.6548 68.1116 89.5422 67.8302 89.3171 67.6042C89.0919 67.3738 88.8115 67.2585 88.476 67.2585C88.1448 67.2585 87.8667 67.3738 87.6415 67.6042C87.4163 67.8302 87.3037 68.1116 87.3037 68.4483C87.3037 68.7807 87.4163 69.0643 87.6415 69.2991C87.8667 69.5251 88.1448 69.6381 88.476 69.6381Z" fill="white"/>
            <path d="M85.0455 68.3952L86.6813 70.1101H85.9661L84.4561 68.5348V70.1101H83.8799V66.7866H84.4561V68.2556L85.8866 66.7866H86.6284L85.0455 68.3952Z" fill="white"/>
            <path d="M83.3928 70.1104H82.7371L82.3596 69.0668H80.2734L79.8959 70.1104H79.2402L80.9688 65.4575H81.6642L83.3928 70.1104ZM81.3132 66.1953L80.4853 68.4885H82.1477L81.3132 66.1953Z" fill="white"/>
            <path d="M75.6837 66.7866H77.0944V70.1101H76.5248V68.9136H76.0413L75.1141 70.1101H74.4121L75.379 68.8804C75.1274 68.8184 74.9243 68.6943 74.7697 68.5082C74.6196 68.3221 74.5446 68.1049 74.5446 67.8568C74.5446 67.551 74.6527 67.2962 74.8691 67.0924C75.0854 66.8885 75.357 66.7866 75.6837 66.7866ZM75.7036 68.3952H76.5248V67.325H75.7036C75.5358 67.325 75.3945 67.376 75.2797 67.4779C75.1693 67.5754 75.1141 67.7039 75.1141 67.8634C75.1141 68.0185 75.1693 68.147 75.2797 68.2489C75.3945 68.3464 75.5358 68.3952 75.7036 68.3952Z" fill="white"/>
            <path d="M73.1685 67.3582V66.7866H73.7447V70.1101H73.1685V69.5384C72.8859 69.9771 72.4687 70.1965 71.9168 70.1965C71.4488 70.1965 71.0536 70.0281 70.7313 69.6913C70.4046 69.3501 70.2412 68.9358 70.2412 68.4483C70.2412 67.9653 70.4046 67.5532 70.7313 67.212C71.058 66.8708 71.4532 66.7002 71.9168 66.7002C72.4687 66.7002 72.8859 66.9195 73.1685 67.3582ZM71.9896 69.6381C72.3252 69.6381 72.6056 69.5251 72.8307 69.2991C73.0559 69.0643 73.1685 68.7807 73.1685 68.4483C73.1685 68.1116 73.0559 67.8302 72.8307 67.6042C72.6056 67.3738 72.3252 67.2585 71.9896 67.2585C71.6585 67.2585 71.3803 67.3738 71.1552 67.6042C70.93 67.8302 70.8174 68.1116 70.8174 68.4483C70.8174 68.7807 70.93 69.0643 71.1552 69.2991C71.3803 69.5251 71.6585 69.6381 71.9896 69.6381Z" fill="white"/>
            <path d="M68.9731 68.1692V66.7866H69.5493V70.1101H68.9731V68.7209H67.2578V70.1101H66.6816V66.7866H67.2578V68.1692H68.9731Z" fill="white"/>
            <path d="M65.6042 66.7866V69.5584H66.0612V71.0008H65.4916V70.1101H63.008V71.0008H62.4385V69.5584H62.8425C63.0544 69.2659 63.1604 68.856 63.1604 68.3287V66.7866H65.6042ZM63.4981 69.5584H65.0346V67.325H63.7299V68.3287C63.7299 68.8162 63.6527 69.226 63.4981 69.5584Z" fill="white"/>
            <path d="M61.6971 69.6913C61.3615 70.0281 60.9487 70.1965 60.4586 70.1965C59.9685 70.1965 59.5557 70.0281 59.2201 69.6913C58.8846 69.3545 58.7168 68.9402 58.7168 68.4483C58.7168 67.9565 58.8846 67.5421 59.2201 67.2054C59.5557 66.8686 59.9685 66.7002 60.4586 66.7002C60.9487 66.7002 61.3615 66.8686 61.6971 67.2054C62.037 67.5466 62.207 67.9609 62.207 68.4483C62.207 68.9358 62.037 69.3501 61.6971 69.6913ZM60.4586 69.6315C60.7897 69.6315 61.0679 69.5185 61.2931 69.2925C61.5183 69.0665 61.6308 68.7851 61.6308 68.4483C61.6308 68.1116 61.5183 67.8302 61.2931 67.6042C61.0679 67.3782 60.7897 67.2652 60.4586 67.2652C60.1319 67.2652 59.8559 67.3782 59.6307 67.6042C59.4056 67.8302 59.293 68.1116 59.293 68.4483C59.293 68.7851 59.4056 69.0665 59.6307 69.2925C59.8559 69.5185 60.1319 69.6315 60.4586 69.6315Z" fill="white"/>
            <path d="M56.5388 66.7002C57.0024 66.7002 57.3976 66.8708 57.7243 67.212C58.0511 67.5532 58.2144 67.9653 58.2144 68.4483C58.2144 68.9358 58.0511 69.3501 57.7243 69.6913C57.402 70.0281 57.0069 70.1965 56.5388 70.1965C55.9914 70.1965 55.5741 69.9771 55.2871 69.5384V71.4395H54.7109V66.7866H55.2871V67.3582C55.5741 66.9195 55.9914 66.7002 56.5388 66.7002ZM56.466 69.6381C56.7971 69.6381 57.0753 69.5251 57.3005 69.2991C57.5256 69.0643 57.6382 68.7807 57.6382 68.4483C57.6382 68.1116 57.5256 67.8302 57.3005 67.6042C57.0753 67.3738 56.7971 67.2585 56.466 67.2585C56.1304 67.2585 55.8501 67.3738 55.6249 67.6042C55.3997 67.8302 55.2871 68.1116 55.2871 68.4483C55.2871 68.7807 55.3997 69.0643 55.6249 69.2991C55.8501 69.5251 56.1304 69.6381 56.466 69.6381Z" fill="white"/>
            <path d="M53.2613 67.3582V66.7866H53.8375V70.1101H53.2613V69.5384C52.9787 69.9771 52.5615 70.1965 52.0096 70.1965C51.5415 70.1965 51.1464 70.0281 50.8241 69.6913C50.4973 69.3501 50.334 68.9358 50.334 68.4483C50.334 67.9653 50.4973 67.5532 50.8241 67.212C51.1508 66.8708 51.546 66.7002 52.0096 66.7002C52.5615 66.7002 52.9787 66.9195 53.2613 67.3582ZM52.0824 69.6381C52.418 69.6381 52.6983 69.5251 52.9235 69.2991C53.1487 69.0643 53.2613 68.7807 53.2613 68.4483C53.2613 68.1116 53.1487 67.8302 52.9235 67.6042C52.6983 67.3738 52.418 67.2585 52.0824 67.2585C51.7513 67.2585 51.4731 67.3738 51.2479 67.6042C51.0228 67.8302 50.9102 68.1116 50.9102 68.4483C50.9102 68.7807 51.0228 69.0643 51.2479 69.2991C51.4731 69.5251 51.7513 69.6381 52.0824 69.6381Z" fill="white"/>
            <path d="M49.0669 68.1692V66.7866H49.6431V70.1101H49.0669V68.7209H47.3516V70.1101H46.7754V66.7866H47.3516V68.1692H49.0669Z" fill="white"/>
            <path d="M44.7242 69.3922L45.6779 66.7866H46.2938L44.9428 70.3161C44.8015 70.6928 44.6028 70.9786 44.3467 71.1736C44.0906 71.373 43.7992 71.4616 43.4725 71.4395V70.9011C43.8743 70.9321 44.1723 70.7105 44.3666 70.2364L44.4196 70.1167L42.9824 66.7866H43.5917L44.7242 69.3922Z" fill="white"/>
            <path d="M42.4177 66.7866V69.5584H42.8746V71.0008H42.3051V70.1101H39.8215V71.0008H39.252V69.5584H39.6559C39.8679 69.2659 39.9738 68.856 39.9738 68.3287V66.7866H42.4177ZM40.3116 69.5584H41.8481V67.325H40.5434V68.3287C40.5434 68.8162 40.4661 69.226 40.3116 69.5584Z" fill="white"/>
            <path d="M37.6281 68.3952L39.0189 70.1101H38.3433L37.1049 68.5348V70.1101H36.5353V68.5348L35.2968 70.1101H34.6279L36.0121 68.3952L34.6942 66.7866H35.3631L36.5353 68.2556V66.7866H37.1049V68.2556L38.2771 66.7866H38.9526L37.6281 68.3952Z" fill="white"/>
            <path d="M34.4699 68.7142H31.6949C31.7523 69.0067 31.887 69.2371 32.0989 69.4055C32.3108 69.5695 32.5757 69.6514 32.8936 69.6514C33.3307 69.6514 33.6486 69.4897 33.8473 69.1662L34.3374 69.4454C34.0107 69.9461 33.525 70.1965 32.8804 70.1965C32.3594 70.1965 31.9311 70.0325 31.5956 69.7046C31.2688 69.3678 31.1055 68.9491 31.1055 68.4483C31.1055 67.9432 31.2666 67.5266 31.5889 67.1987C31.9112 66.8664 32.3285 66.7002 32.8407 66.7002C33.3263 66.7002 33.7215 66.873 34.0261 67.2187C34.3352 67.5554 34.4897 67.9675 34.4897 68.455C34.4897 68.5392 34.4831 68.6256 34.4699 68.7142ZM32.8407 67.2452C32.536 67.2452 32.2799 67.3317 32.0724 67.5045C31.8693 67.6773 31.7435 67.9122 31.6949 68.209H33.9069C33.8584 67.9033 33.7369 67.6662 33.5427 67.4978C33.3484 67.3294 33.1144 67.2452 32.8407 67.2452Z" fill="white"/>
            <path d="M29.664 65.4575H30.3594V70.1104H29.7501V66.4745L28.2335 69.007H28.154L26.6374 66.4811V70.1104H26.0215V65.4575H26.7169L28.1938 67.9169L29.664 65.4575Z" fill="white"/>
            <path d="M101.126 82.2959H102.184V84.7885H101.756V83.8912H101.394L100.698 84.7885H100.172L100.897 83.8662C100.708 83.8197 100.556 83.7266 100.44 83.5871C100.328 83.4475 100.271 83.2846 100.271 83.0985C100.271 82.8692 100.352 82.6781 100.515 82.5252C100.677 82.3723 100.881 82.2959 101.126 82.2959ZM101.14 83.5023H101.756V82.6997H101.14C101.015 82.6997 100.909 82.7379 100.823 82.8144C100.74 82.8875 100.698 82.9839 100.698 83.1035C100.698 83.2198 100.74 83.3162 100.823 83.3926C100.909 83.4658 101.015 83.5023 101.14 83.5023Z" fill="white"/>
            <path d="M97.9448 84.0457L99.3207 82.2959H99.6683V84.7885H99.2412V83.0387L97.8653 84.7885H97.5176V82.2959H97.9448V84.0457Z" fill="white"/>
            <path d="M96.4276 83.3328V82.2959H96.8597V84.7885H96.4276V83.7466H95.1411V84.7885H94.709V82.2959H95.1411V83.3328H96.4276Z" fill="white"/>
            <path d="M93.6212 82.7245V82.2958H94.0534V84.7884H93.6212V84.3596C93.4093 84.6887 93.0964 84.8532 92.6825 84.8532C92.3315 84.8532 92.0351 84.7269 91.7933 84.4743C91.5483 84.2184 91.4258 83.9076 91.4258 83.5421C91.4258 83.1798 91.5483 82.8707 91.7933 82.6148C92.0384 82.3589 92.3348 82.231 92.6825 82.231C93.0964 82.231 93.4093 82.3955 93.6212 82.7245ZM92.7371 84.4344C92.9888 84.4344 93.199 84.3497 93.3679 84.1802C93.5368 84.004 93.6212 83.7913 93.6212 83.5421C93.6212 83.2895 93.5368 83.0784 93.3679 82.9089C93.199 82.7361 92.9888 82.6497 92.7371 82.6497C92.4887 82.6497 92.2801 82.7361 92.1112 82.9089C91.9424 83.0784 91.8579 83.2895 91.8579 83.5421C91.8579 83.7913 91.9424 84.004 92.1112 84.1802C92.2801 84.3497 92.4887 84.4344 92.7371 84.4344Z" fill="white"/>
            <path d="M90.7166 83.5073C90.9715 83.6137 91.099 83.8064 91.099 84.0856C91.099 84.2983 91.0295 84.4694 90.8904 84.5991C90.7513 84.7254 90.5559 84.7885 90.3043 84.7885H89.0625V82.2959H90.2049C90.45 82.2959 90.6404 82.3574 90.7762 82.4804C90.9152 82.6033 90.9848 82.7678 90.9848 82.9739C90.9848 83.2132 90.8954 83.391 90.7166 83.5073ZM90.1851 82.6847H89.4847V83.3378H90.1851C90.4367 83.3378 90.5626 83.2265 90.5626 83.0038C90.5626 82.7911 90.4367 82.6847 90.1851 82.6847ZM89.4847 84.3947H90.2794C90.4053 84.3947 90.5013 84.3648 90.5675 84.3049C90.6371 84.2451 90.6718 84.1604 90.6718 84.0507C90.6718 83.9477 90.6371 83.8679 90.5675 83.8114C90.5013 83.7516 90.4053 83.7217 90.2794 83.7217H89.4847V84.3947Z" fill="white"/>
            <path d="M88.1708 84.4743C87.9191 84.7269 87.6095 84.8532 87.2419 84.8532C86.8743 84.8532 86.5647 84.7269 86.313 84.4743C86.0614 84.2217 85.9355 83.911 85.9355 83.5421C85.9355 83.1732 86.0614 82.8624 86.313 82.6098C86.5647 82.3572 86.8743 82.231 87.2419 82.231C87.6095 82.231 87.9191 82.3572 88.1708 82.6098C88.4257 82.8657 88.5532 83.1765 88.5532 83.5421C88.5532 83.9076 88.4257 84.2184 88.1708 84.4743ZM87.2419 84.4294C87.4903 84.4294 87.6989 84.3447 87.8678 84.1752C88.0366 84.0057 88.1211 83.7946 88.1211 83.5421C88.1211 83.2895 88.0366 83.0784 87.8678 82.9089C87.6989 82.7394 87.4903 82.6547 87.2419 82.6547C86.9969 82.6547 86.7899 82.7394 86.621 82.9089C86.4521 83.0784 86.3677 83.2895 86.3677 83.5421C86.3677 83.7946 86.4521 84.0057 86.621 84.1752C86.7899 84.3447 86.9969 84.4294 87.2419 84.4294Z" fill="white"/>
            <path d="M85.1941 83.5122C85.469 83.6285 85.6064 83.8262 85.6064 84.1054C85.6064 84.3214 85.5219 84.5009 85.3531 84.6438C85.1842 84.7834 84.9507 84.8532 84.6527 84.8532C84.156 84.8532 83.8232 84.6538 83.6543 84.2549L84.0169 84.0406C84.1096 84.3131 84.3232 84.4494 84.6577 84.4494C84.8199 84.4494 84.9474 84.4145 85.0401 84.3447C85.1328 84.2749 85.1792 84.1818 85.1792 84.0655C85.1792 83.9658 85.1411 83.8844 85.065 83.8212C84.9921 83.7581 84.8928 83.7265 84.7669 83.7265H84.4043V83.3327H84.6726C84.7984 83.3327 84.8961 83.3028 84.9656 83.243C85.0352 83.1798 85.0699 83.0951 85.0699 82.9887C85.0699 82.879 85.0285 82.7926 84.9457 82.7295C84.863 82.663 84.752 82.6298 84.613 82.6298C84.3348 82.6298 84.146 82.7478 84.0467 82.9837L83.694 82.7793C83.8695 82.4137 84.1758 82.231 84.613 82.231C84.8779 82.231 85.0898 82.3007 85.2487 82.4403C85.411 82.5766 85.4921 82.7478 85.4921 82.9538C85.4921 83.2064 85.3928 83.3925 85.1941 83.5122Z" fill="white"/>
            <path d="M82.7658 82.7245V82.2958H83.1979V84.7884H82.7658V84.3596C82.5538 84.6887 82.2409 84.8532 81.827 84.8532C81.476 84.8532 81.1796 84.7269 80.9379 84.4743C80.6928 84.2184 80.5703 83.9076 80.5703 83.5421C80.5703 83.1798 80.6928 82.8707 80.9379 82.6148C81.1829 82.3589 81.4793 82.231 81.827 82.231C82.2409 82.231 82.5538 82.3955 82.7658 82.7245ZM81.8816 84.4344C82.1333 84.4344 82.3436 84.3497 82.5125 84.1802C82.6813 84.004 82.7658 83.7913 82.7658 83.5421C82.7658 83.2895 82.6813 83.0784 82.5125 82.9089C82.3436 82.7361 82.1333 82.6497 81.8816 82.6497C81.6333 82.6497 81.4247 82.7361 81.2558 82.9089C81.0869 83.0784 81.0025 83.2895 81.0025 83.5421C81.0025 83.7913 81.0869 84.004 81.2558 84.1802C81.4247 84.3497 81.6333 84.4344 81.8816 84.4344Z" fill="white"/>
            <path d="M78.9373 82.231C79.285 82.231 79.5814 82.3589 79.8264 82.6148C80.0715 82.8707 80.194 83.1798 80.194 83.5421C80.194 83.9076 80.0715 84.2184 79.8264 84.4743C79.5847 84.7269 79.2883 84.8532 78.9373 84.8532C78.5267 84.8532 78.2138 84.6887 77.9985 84.3596V85.7854H77.5664V82.2958H77.9985V82.7245C78.2138 82.3955 78.5267 82.231 78.9373 82.231ZM78.8827 84.4344C79.1311 84.4344 79.3397 84.3497 79.5086 84.1802C79.6774 84.004 79.7619 83.7913 79.7619 83.5421C79.7619 83.2895 79.6774 83.0784 79.5086 82.9089C79.3397 82.7361 79.1311 82.6497 78.8827 82.6497C78.631 82.6497 78.4208 82.7361 78.2519 82.9089C78.083 83.0784 77.9985 83.2895 77.9985 83.5421C77.9985 83.7913 78.083 84.004 78.2519 84.1802C78.4208 84.3497 78.631 84.4344 78.8827 84.4344Z" fill="white"/>
            <path d="M75.875 84.8534C75.5074 84.8534 75.2045 84.7321 74.966 84.4895C74.7276 84.2436 74.6084 83.9312 74.6084 83.5523C74.6084 83.1236 74.6697 82.7962 74.7922 82.5702C74.918 82.3409 75.173 82.1332 75.5571 81.9471C75.577 81.9371 75.6002 81.9255 75.6267 81.9122C75.6565 81.8989 75.6912 81.8839 75.731 81.8673C75.774 81.8474 75.8104 81.8308 75.8402 81.8175L76.1085 81.6978C76.3734 81.5649 76.5141 81.4054 76.5307 81.2192L76.8784 81.4186C76.8552 81.535 76.8171 81.628 76.7641 81.6978C76.7608 81.7045 76.7509 81.7194 76.7343 81.7427C76.7178 81.7626 76.7062 81.7776 76.6996 81.7876C76.6929 81.7942 76.6813 81.8058 76.6648 81.8224C76.6515 81.8357 76.6366 81.849 76.6201 81.8623C76.6068 81.8756 76.5886 81.8889 76.5654 81.9022C76.4429 81.9786 76.3552 82.0285 76.3022 82.0518C76.2823 82.0617 76.2608 82.0717 76.2376 82.0817C76.2177 82.0916 76.2012 82.1 76.1879 82.1066C76.1747 82.1133 76.1648 82.1182 76.1581 82.1216L75.9942 82.1914L75.8353 82.2562C75.6134 82.3525 75.4495 82.4506 75.3435 82.5503C75.2376 82.65 75.1614 82.7763 75.115 82.9292C75.2177 82.8029 75.3468 82.7065 75.5025 82.64C75.6614 82.5736 75.8237 82.5403 75.9893 82.5403C76.3038 82.5403 76.5671 82.6467 76.779 82.8594C76.9976 83.0754 77.1069 83.3496 77.1069 83.6819C77.1069 84.0209 76.991 84.3018 76.7592 84.5244C76.5241 84.7438 76.2293 84.8534 75.875 84.8534ZM76.6747 83.6819C76.6747 83.4593 76.6019 83.2781 76.4562 83.1385C76.3138 82.9956 76.125 82.9242 75.8899 82.9242C75.6813 82.9242 75.4892 82.9923 75.3137 83.1286C75.1448 83.2648 75.0604 83.441 75.0604 83.657C75.0604 83.883 75.1382 84.0691 75.2939 84.2153C75.4495 84.3616 75.6432 84.4347 75.875 84.4347C76.1101 84.4347 76.3005 84.3632 76.4462 84.2203C76.5986 84.0774 76.6747 83.898 76.6747 83.6819Z" fill="white"/>
            <path d="M73.8563 84.4743C73.6046 84.7269 73.295 84.8532 72.9274 84.8532C72.5599 84.8532 72.2503 84.7269 71.9986 84.4743C71.7469 84.2217 71.6211 83.911 71.6211 83.5421C71.6211 83.1732 71.7469 82.8624 71.9986 82.6098C72.2503 82.3572 72.5599 82.231 72.9274 82.231C73.295 82.231 73.6046 82.3572 73.8563 82.6098C74.1113 82.8657 74.2388 83.1765 74.2388 83.5421C74.2388 83.9076 74.1113 84.2184 73.8563 84.4743ZM72.9274 84.4294C73.1758 84.4294 73.3844 84.3447 73.5533 84.1752C73.7222 84.0057 73.8066 83.7946 73.8066 83.5421C73.8066 83.2895 73.7222 83.0784 73.5533 82.9089C73.3844 82.7394 73.1758 82.6547 72.9274 82.6547C72.6824 82.6547 72.4754 82.7394 72.3066 82.9089C72.1377 83.0784 72.0532 83.2895 72.0532 83.5421C72.0532 83.7946 72.1377 84.0057 72.3066 84.1752C72.4754 84.3447 72.6824 84.4294 72.9274 84.4294Z" fill="white"/>
            <path d="M69.6258 84.4743C69.3742 84.7269 69.0645 84.8532 68.697 84.8532C68.3294 84.8532 68.0198 84.7269 67.7681 84.4743C67.5165 84.2217 67.3906 83.911 67.3906 83.5421C67.3906 83.1732 67.5165 82.8624 67.7681 82.6098C68.0198 82.3572 68.3294 82.231 68.697 82.231C69.0645 82.231 69.3742 82.3572 69.6258 82.6098C69.8808 82.8657 70.0083 83.1765 70.0083 83.5421C70.0083 83.9076 69.8808 84.2184 69.6258 84.4743ZM68.697 84.4294C68.9453 84.4294 69.154 84.3447 69.3228 84.1752C69.4917 84.0057 69.5762 83.7946 69.5762 83.5421C69.5762 83.2895 69.4917 83.0784 69.3228 82.9089C69.154 82.7394 68.9453 82.6547 68.697 82.6547C68.4519 82.6547 68.245 82.7394 68.0761 82.9089C67.9072 83.0784 67.8228 83.2895 67.8228 83.5421C67.8228 83.7946 67.9072 84.0057 68.0761 84.1752C68.245 84.3447 68.4519 84.4294 68.697 84.4294Z" fill="white"/>
            <path d="M65.6191 82.2959H67.2484V82.7147H66.0513V84.7885H65.6191V82.2959Z" fill="white"/>
            <path d="M64.7274 84.4743C64.4757 84.7269 64.1661 84.8532 63.7985 84.8532C63.431 84.8532 63.1214 84.7269 62.8697 84.4743C62.618 84.2217 62.4922 83.911 62.4922 83.5421C62.4922 83.1732 62.618 82.8624 62.8697 82.6098C63.1214 82.3572 63.431 82.231 63.7985 82.231C64.1661 82.231 64.4757 82.3572 64.7274 82.6098C64.9824 82.8657 65.1099 83.1765 65.1099 83.5421C65.1099 83.9076 64.9824 84.2184 64.7274 84.4743ZM63.7985 84.4294C64.0469 84.4294 64.2555 84.3447 64.4244 84.1752C64.5933 84.0057 64.6777 83.7946 64.6777 83.5421C64.6777 83.2895 64.5933 83.0784 64.4244 82.9089C64.2555 82.7394 64.0469 82.6547 63.7985 82.6547C63.5535 82.6547 63.3465 82.7394 63.1776 82.9089C63.0088 83.0784 62.9243 83.2895 62.9243 83.5421C62.9243 83.7946 63.0088 84.0057 63.1776 84.1752C63.3465 84.3447 63.5535 84.4294 63.7985 84.4294Z" fill="white"/>
            <path d="M61.5409 83.3328V82.2959H61.973V84.7885H61.5409V83.7466H60.2544V84.7885H59.8223V82.2959H60.2544V83.3328H61.5409Z" fill="white"/>
            <path d="M57.8775 83.1932H58.4934C58.7417 83.1932 58.947 83.268 59.1093 83.4176C59.2749 83.5638 59.3577 83.7549 59.3577 83.9909C59.3577 84.2268 59.2749 84.4196 59.1093 84.5691C58.9437 84.7154 58.7384 84.7885 58.4934 84.7885H57.4453V82.2959H57.8775V83.1932ZM57.8775 84.3847H58.4934C58.6192 84.3847 58.7235 84.3481 58.8063 84.275C58.8891 84.2019 58.9305 84.1072 58.9305 83.9909C58.9305 83.8745 58.8874 83.7798 58.8013 83.7067C58.7186 83.6303 58.6159 83.5921 58.4934 83.5921H57.8775V84.3847Z" fill="white"/>
            <path d="M54.9481 82.2959H56.7909V84.7885H56.3587V82.7147H55.3802V83.7316C55.3802 84.1305 55.3007 84.4146 55.1418 84.5841C54.9828 84.7503 54.7494 84.8184 54.4414 84.7885V84.3797C54.6136 84.403 54.7411 84.3648 54.8239 84.2651C54.9067 84.162 54.9481 83.9809 54.9481 83.7217V82.2959Z" fill="white"/>
            <path d="M54.3046 83.7415H52.2233C52.2664 83.9608 52.3674 84.1336 52.5263 84.2599C52.6853 84.3829 52.884 84.4444 53.1224 84.4444C53.4502 84.4444 53.6886 84.3231 53.8376 84.0805L54.2052 84.2898C53.9602 84.6654 53.5959 84.8532 53.1124 84.8532C52.7217 84.8532 52.4005 84.7302 52.1488 84.4843C51.9038 84.2317 51.7812 83.9176 51.7812 83.5421C51.7812 83.1632 51.9021 82.8508 52.1439 82.6048C52.3856 82.3556 52.6985 82.231 53.0826 82.231C53.4469 82.231 53.7433 82.3606 53.9718 82.6198C54.2036 82.8724 54.3195 83.1815 54.3195 83.547C54.3195 83.6102 54.3145 83.675 54.3046 83.7415ZM53.0826 82.6397C52.8542 82.6397 52.6621 82.7046 52.5064 82.8342C52.3541 82.9638 52.2598 83.1399 52.2233 83.3626H53.8823C53.8459 83.1333 53.7549 82.9555 53.6092 82.8292C53.4635 82.7029 53.2879 82.6397 53.0826 82.6397Z" fill="white"/>
            <path d="M49.5127 82.2959H51.6386V82.7147H50.7942V84.7885H50.3621V82.7147H49.5127V82.2959Z" fill="white"/>
            <path d="M47.4096 84.0457L48.7855 82.2959H49.1332V84.7885H48.706V83.0387L47.3301 84.7885H46.9824V82.2959H47.4096V84.0457Z" fill="white"/>
            <path d="M45.8925 83.3328V82.2959H46.3246V84.7885H45.8925V83.7466H44.606V84.7885H44.1738V82.2959H44.606V83.3328H45.8925Z" fill="white"/>
            <path d="M41.6766 82.2959H43.5194V84.7885H43.0872V82.7147H42.1087V83.7316C42.1087 84.1305 42.0292 84.4146 41.8703 84.5841C41.7113 84.7503 41.4779 84.8184 41.1699 84.7885V84.3797C41.3421 84.403 41.4696 84.3648 41.5524 84.2651C41.6352 84.162 41.6766 83.9809 41.6766 83.7217V82.2959Z" fill="white"/>
            <path d="M40.6434 84.4743C40.3917 84.7269 40.0821 84.8532 39.7146 84.8532C39.347 84.8532 39.0374 84.7269 38.7857 84.4743C38.534 84.2217 38.4082 83.911 38.4082 83.5421C38.4082 83.1732 38.534 82.8624 38.7857 82.6098C39.0374 82.3572 39.347 82.231 39.7146 82.231C40.0821 82.231 40.3917 82.3572 40.6434 82.6098C40.8984 82.8657 41.0259 83.1765 41.0259 83.5421C41.0259 83.9076 40.8984 84.2184 40.6434 84.4743ZM39.7146 84.4294C39.9629 84.4294 40.1715 84.3447 40.3404 84.1752C40.5093 84.0057 40.5937 83.7946 40.5937 83.5421C40.5937 83.2895 40.5093 83.0784 40.3404 82.9089C40.1715 82.7394 39.9629 82.6547 39.7146 82.6547C39.4695 82.6547 39.2625 82.7394 39.0937 82.9089C38.9248 83.0784 38.8403 83.2895 38.8403 83.5421C38.8403 83.7946 38.9248 84.0057 39.0937 84.1752C39.2625 84.3447 39.4695 84.4294 39.7146 84.4294Z" fill="white"/>
            <path d="M35.7383 82.2959H37.889V84.7885H37.4569V82.7097H36.1704V84.7885H35.7383V82.2959Z" fill="white"/>
            <path d="M34.8465 84.4743C34.5949 84.7269 34.2853 84.8532 33.9177 84.8532C33.5501 84.8532 33.2405 84.7269 32.9888 84.4743C32.7372 84.2217 32.6113 83.911 32.6113 83.5421C32.6113 83.1732 32.7372 82.8624 32.9888 82.6098C33.2405 82.3572 33.5501 82.231 33.9177 82.231C34.2853 82.231 34.5949 82.3572 34.8465 82.6098C35.1015 82.8657 35.229 83.1765 35.229 83.5421C35.229 83.9076 35.1015 84.2184 34.8465 84.4743ZM33.9177 84.4294C34.166 84.4294 34.3747 84.3447 34.5435 84.1752C34.7124 84.0057 34.7969 83.7946 34.7969 83.5421C34.7969 83.2895 34.7124 83.0784 34.5435 82.9089C34.3747 82.7394 34.166 82.6547 33.9177 82.6547C33.6726 82.6547 33.4657 82.7394 33.2968 82.9089C33.1279 83.0784 33.0435 83.2895 33.0435 83.5421C33.0435 83.7946 33.1279 84.0057 33.2968 84.1752C33.4657 84.3447 33.6726 84.4294 33.9177 84.4294Z" fill="white"/>
            <path d="M32.0383 82.2959V84.3747H32.3811V85.4565H31.9539V84.7885H30.0912V85.4565H29.6641V84.3747H29.9671C30.126 84.1554 30.2055 83.848 30.2055 83.4525V82.2959H32.0383ZM30.4588 84.3747H31.6112V82.6997H30.6327V83.4525C30.6327 83.818 30.5747 84.1255 30.4588 84.3747Z" fill="white"/>
            <path d="M26.2797 84.0457L27.6556 82.2959H28.0033V84.7885H27.5761V83.0387L26.2002 84.7885H25.8525V82.2959H26.2797V84.0457Z" fill="white"/>
            <path d="M95.4498 75.7881H96.5078V78.2807H96.0806V77.3833H95.718L95.0226 78.2807H94.4961L95.2213 77.3584C95.0325 77.3119 94.8802 77.2188 94.7643 77.0793C94.6517 76.9397 94.5954 76.7768 94.5954 76.5907C94.5954 76.3614 94.6766 76.1703 94.8388 76.0174C95.0011 75.8645 95.2047 75.7881 95.4498 75.7881ZM95.4647 76.9945H96.0806V76.1919H95.4647C95.3388 76.1919 95.2329 76.2301 95.1468 76.3065C95.064 76.3797 95.0226 76.476 95.0226 76.5957C95.0226 76.712 95.064 76.8084 95.1468 76.8848C95.2329 76.9579 95.3388 76.9945 95.4647 76.9945Z" fill="white"/>
            <path d="M92.269 77.5379L93.6449 75.7881H93.9926V78.2807H93.5654V76.5309L92.1895 78.2807H91.8418V75.7881H92.269V77.5379Z" fill="white"/>
            <path d="M90.7518 76.825V75.7881H91.184V78.2807H90.7518V77.2388H89.4653V78.2807H89.0332V75.7881H89.4653V76.825H90.7518Z" fill="white"/>
            <path d="M88.5213 77.2332H86.4401C86.4832 77.4525 86.5842 77.6253 86.7431 77.7516C86.9021 77.8746 87.1007 77.9361 87.3392 77.9361C87.667 77.9361 87.9054 77.8148 88.0544 77.5722L88.422 77.7815C88.177 78.1571 87.8127 78.3449 87.3292 78.3449C86.9385 78.3449 86.6173 78.2219 86.3656 77.976C86.1206 77.7234 85.998 77.4093 85.998 77.0338C85.998 76.6549 86.1189 76.3425 86.3606 76.0965C86.6024 75.8473 86.9153 75.7227 87.2994 75.7227C87.6637 75.7227 87.9601 75.8523 88.1885 76.1115C88.4203 76.3641 88.5362 76.6732 88.5362 77.0387C88.5362 77.1019 88.5313 77.1667 88.5213 77.2332ZM87.2994 76.1314C87.0709 76.1314 86.8789 76.1962 86.7232 76.3259C86.5709 76.4555 86.4765 76.6316 86.4401 76.8543H88.0991C88.0627 76.625 87.9716 76.4472 87.8259 76.3209C87.6802 76.1946 87.5047 76.1314 87.2994 76.1314Z" fill="white"/>
            <path d="M85.0488 76.9795V75.7881H85.481V78.2807H85.0488V77.3833C84.8468 77.4698 84.6233 77.513 84.3783 77.513C84.0571 77.513 83.8104 77.4365 83.6382 77.2836C83.466 77.1308 83.3799 76.9081 83.3799 76.6156V75.7881H83.812V76.5907C83.812 76.7735 83.86 76.9064 83.9561 76.9895C84.0554 77.0693 84.2061 77.1092 84.4081 77.1092C84.6366 77.1092 84.8502 77.066 85.0488 76.9795Z" fill="white"/>
            <path d="M81.946 77.7423L82.6613 75.7881H83.1232L82.1099 78.4352C82.004 78.7177 81.8549 78.9321 81.6629 79.0783C81.4708 79.2279 81.2523 79.2943 81.0072 79.2777V78.8739C81.3086 78.8972 81.5321 78.731 81.6778 78.3754L81.7175 78.2857L80.6396 75.7881H81.0966L81.946 77.7423Z" fill="white"/>
            <path d="M79.334 78.3451C78.9664 78.3451 78.6634 78.2238 78.425 77.9812C78.1866 77.7353 78.0674 77.4229 78.0674 77.044C78.0674 76.6153 78.1286 76.2879 78.2512 76.0619C78.377 75.8326 78.632 75.6249 79.0161 75.4388C79.036 75.4288 79.0591 75.4172 79.0856 75.4039C79.1154 75.3906 79.1502 75.3756 79.19 75.359C79.233 75.3391 79.2694 75.3225 79.2992 75.3092L79.5675 75.1895C79.8324 75.0566 79.9731 74.8971 79.9897 74.7109L80.3374 74.9103C80.3142 75.0267 80.2761 75.1197 80.2231 75.1895C80.2198 75.1962 80.2099 75.2111 80.1933 75.2344C80.1768 75.2543 80.1652 75.2693 80.1585 75.2792C80.1519 75.2859 80.1403 75.2975 80.1238 75.3141C80.1105 75.3274 80.0956 75.3407 80.0791 75.354C80.0658 75.3673 80.0476 75.3806 80.0244 75.3939C79.9019 75.4703 79.8142 75.5202 79.7612 75.5435C79.7413 75.5534 79.7198 75.5634 79.6966 75.5734C79.6767 75.5833 79.6602 75.5917 79.6469 75.5983C79.6337 75.6049 79.6237 75.6099 79.6171 75.6133L79.4532 75.6831L79.2943 75.7479C79.0724 75.8442 78.9085 75.9423 78.8025 76.042C78.6966 76.1417 78.6204 76.268 78.574 76.4209C78.6767 76.2946 78.8058 76.1982 78.9615 76.1317C79.1204 76.0652 79.2827 76.032 79.4482 76.032C79.7628 76.032 80.0261 76.1384 80.238 76.3511C80.4566 76.5671 80.5658 76.8413 80.5658 77.1736C80.5658 77.5126 80.4499 77.7935 80.2181 78.0161C79.983 78.2355 79.6883 78.3451 79.334 78.3451ZM80.1337 77.1736C80.1337 76.951 80.0609 76.7698 79.9152 76.6302C79.7728 76.4873 79.584 76.4159 79.3489 76.4159C79.1403 76.4159 78.9482 76.484 78.7727 76.6203C78.6038 76.7565 78.5194 76.9327 78.5194 77.1487C78.5194 77.3747 78.5972 77.5608 78.7528 77.707C78.9085 77.8533 79.1022 77.9264 79.334 77.9264C79.5691 77.9264 79.7595 77.8549 79.9052 77.712C80.0575 77.5691 80.1337 77.3897 80.1337 77.1736Z" fill="white"/>
            <path d="M77.3143 77.966C77.0626 78.2186 76.753 78.3449 76.3855 78.3449C76.0179 78.3449 75.7083 78.2186 75.4566 77.966C75.2049 77.7134 75.0791 77.4027 75.0791 77.0338C75.0791 76.6649 75.2049 76.3541 75.4566 76.1015C75.7083 75.8489 76.0179 75.7227 76.3855 75.7227C76.753 75.7227 77.0626 75.8489 77.3143 76.1015C77.5693 76.3574 77.6968 76.6682 77.6968 77.0338C77.6968 77.3993 77.5693 77.7101 77.3143 77.966ZM76.3855 77.9211C76.6338 77.9211 76.8424 77.8364 77.0113 77.6669C77.1802 77.4974 77.2646 77.2863 77.2646 77.0338C77.2646 76.7812 77.1802 76.5701 77.0113 76.4006C76.8424 76.2311 76.6338 76.1464 76.3855 76.1464C76.1404 76.1464 75.9334 76.2311 75.7646 76.4006C75.5957 76.5701 75.5112 76.7812 75.5112 77.0338C75.5112 77.2863 75.5957 77.4974 75.7646 77.6669C75.9334 77.8364 76.1404 77.9211 76.3855 77.9211Z" fill="white"/>
            <path d="M73.0848 77.966C72.8331 78.2186 72.5235 78.3449 72.156 78.3449C71.7884 78.3449 71.4788 78.2186 71.2271 77.966C70.9754 77.7134 70.8496 77.4027 70.8496 77.0338C70.8496 76.6649 70.9754 76.3541 71.2271 76.1015C71.4788 75.8489 71.7884 75.7227 72.156 75.7227C72.5235 75.7227 72.8331 75.8489 73.0848 76.1015C73.3398 76.3574 73.4673 76.6682 73.4673 77.0338C73.4673 77.3993 73.3398 77.7101 73.0848 77.966ZM72.156 77.9211C72.4043 77.9211 72.6129 77.8364 72.7818 77.6669C72.9507 77.4974 73.0351 77.2863 73.0351 77.0338C73.0351 76.7812 72.9507 76.5701 72.7818 76.4006C72.6129 76.2311 72.4043 76.1464 72.156 76.1464C71.9109 76.1464 71.704 76.2311 71.5351 76.4006C71.3662 76.5701 71.2817 76.7812 71.2817 77.0338C71.2817 77.2863 71.3662 77.4974 71.5351 77.6669C71.704 77.8364 71.9109 77.9211 72.156 77.9211Z" fill="white"/>
            <path d="M69.0771 75.7881H70.7064V76.2068H69.5093V78.2807H69.0771V75.7881Z" fill="white"/>
            <path d="M68.1854 77.966C67.9337 78.2186 67.6241 78.3449 67.2565 78.3449C66.889 78.3449 66.5794 78.2186 66.3277 77.966C66.076 77.7134 65.9502 77.4027 65.9502 77.0338C65.9502 76.6649 66.076 76.3541 66.3277 76.1015C66.5794 75.8489 66.889 75.7227 67.2565 75.7227C67.6241 75.7227 67.9337 75.8489 68.1854 76.1015C68.4404 76.3574 68.5679 76.6682 68.5679 77.0338C68.5679 77.3993 68.4404 77.7101 68.1854 77.966ZM67.2565 77.9211C67.5049 77.9211 67.7135 77.8364 67.8824 77.6669C68.0513 77.4974 68.1357 77.2863 68.1357 77.0338C68.1357 76.7812 68.0513 76.5701 67.8824 76.4006C67.7135 76.2311 67.5049 76.1464 67.2565 76.1464C67.0115 76.1464 66.8045 76.2311 66.6357 76.4006C66.4668 76.5701 66.3823 76.7812 66.3823 77.0338C66.3823 77.2863 66.4668 77.4974 66.6357 77.6669C66.8045 77.8364 67.0115 77.9211 67.2565 77.9211Z" fill="white"/>
            <path d="M64.9999 76.825V75.7881H65.432V78.2807H64.9999V77.2388H63.7134V78.2807H63.2812V75.7881H63.7134V76.825H64.9999Z" fill="white"/>
            <path d="M61.3364 76.6854H61.9524C62.2007 76.6854 62.406 76.7602 62.5683 76.9098C62.7339 77.056 62.8166 77.2471 62.8166 77.4831C62.8166 77.719 62.7339 77.9118 62.5683 78.0613C62.4027 78.2076 62.1974 78.2807 61.9524 78.2807H60.9043V75.7881H61.3364V76.6854ZM61.3364 77.8769H61.9524C62.0782 77.8769 62.1825 77.8403 62.2653 77.7672C62.3481 77.6941 62.3895 77.5994 62.3895 77.4831C62.3895 77.3667 62.3464 77.272 62.2603 77.1989C62.1775 77.1225 62.0749 77.0842 61.9524 77.0842H61.3364V77.8769Z" fill="white"/>
            <path d="M58.4061 75.7881H60.2489V78.2807H59.8167V76.2068H58.8382V77.2238C58.8382 77.6226 58.7587 77.9068 58.5998 78.0763C58.4408 78.2425 58.2074 78.3106 57.8994 78.2807V77.8719C58.0716 77.8952 58.1991 77.8569 58.2819 77.7572C58.3647 77.6542 58.4061 77.4731 58.4061 77.2139V75.7881Z" fill="white"/>
            <path d="M57.091 76.2162V75.7875H57.5231V78.2801H57.091V77.8513C56.879 78.1804 56.5661 78.3449 56.1522 78.3449C55.8012 78.3449 55.5048 78.2186 55.2631 77.966C55.018 77.7101 54.8955 77.3993 54.8955 77.0338C54.8955 76.6715 55.018 76.3624 55.2631 76.1065C55.5081 75.8506 55.8045 75.7227 56.1522 75.7227C56.5661 75.7227 56.879 75.8872 57.091 76.2162ZM56.2068 77.9261C56.4585 77.9261 56.6688 77.8414 56.8377 77.6719C57.0065 77.4957 57.091 77.283 57.091 77.0338C57.091 76.7812 57.0065 76.5701 56.8377 76.4006C56.6688 76.2278 56.4585 76.1414 56.2068 76.1414C55.9585 76.1414 55.7499 76.2278 55.581 76.4006C55.4121 76.5701 55.3276 76.7812 55.3276 77.0338C55.3276 77.283 55.4121 77.4957 55.581 77.6719C55.7499 77.8414 55.9585 77.9261 56.2068 77.9261Z" fill="white"/>
            <path d="M53.9452 76.825V75.7881H54.3773V78.2807H53.9452V77.2388H52.6587V78.2807H52.2266V75.7881H52.6587V76.825H53.9452Z" fill="white"/>
            <path d="M51.3338 77.966C51.0822 78.2186 50.7726 78.3449 50.405 78.3449C50.0374 78.3449 49.7278 78.2186 49.4761 77.966C49.2245 77.7134 49.0986 77.4027 49.0986 77.0338C49.0986 76.6649 49.2245 76.3541 49.4761 76.1015C49.7278 75.8489 50.0374 75.7227 50.405 75.7227C50.7726 75.7227 51.0822 75.8489 51.3338 76.1015C51.5888 76.3574 51.7163 76.6682 51.7163 77.0338C51.7163 77.3993 51.5888 77.7101 51.3338 77.966ZM50.405 77.9211C50.6533 77.9211 50.862 77.8364 51.0308 77.6669C51.1997 77.4974 51.2842 77.2863 51.2842 77.0338C51.2842 76.7812 51.1997 76.5701 51.0308 76.4006C50.862 76.2311 50.6533 76.1464 50.405 76.1464C50.1599 76.1464 49.953 76.2311 49.7841 76.4006C49.6152 76.5701 49.5308 76.7812 49.5308 77.0338C49.5308 77.2863 49.6152 77.4974 49.7841 77.6669C49.953 77.8364 50.1599 77.9211 50.405 77.9211Z" fill="white"/>
            <path d="M46.8569 77.5379L48.2328 75.7881H48.5805V78.2807H48.1533V76.5309L46.7774 78.2807H46.4297V75.7881H46.8569V77.5379Z" fill="white"/>
            <path d="M44.8806 78.3449C44.5064 78.3449 44.1951 78.2202 43.9468 77.971C43.6984 77.7184 43.5742 77.406 43.5742 77.0338C43.5742 76.6615 43.6984 76.3508 43.9468 76.1015C44.1951 75.8489 44.5064 75.7227 44.8806 75.7227C45.1256 75.7227 45.3458 75.7825 45.5412 75.9021C45.7366 76.0184 45.8823 76.1763 45.9783 76.3757L45.6157 76.5851C45.5528 76.4522 45.4551 76.3458 45.3226 76.266C45.1935 76.1863 45.0461 76.1464 44.8806 76.1464C44.6322 76.1464 44.4236 76.2311 44.2547 76.4006C44.0891 76.5735 44.0064 76.7845 44.0064 77.0338C44.0064 77.2797 44.0891 77.4891 44.2547 77.6619C44.4236 77.8314 44.6322 77.9161 44.8806 77.9161C45.0461 77.9161 45.1952 77.8779 45.3276 77.8015C45.4601 77.7217 45.5611 77.6154 45.6306 77.4824L45.9982 77.6968C45.8889 77.8962 45.7349 78.0541 45.5362 78.1704C45.3375 78.2867 45.119 78.3449 44.8806 78.3449Z" fill="white"/>
            <path d="M42.2028 78.3449C41.8286 78.3449 41.5174 78.2202 41.269 77.971C41.0207 77.7184 40.8965 77.406 40.8965 77.0338C40.8965 76.6615 41.0207 76.3508 41.269 76.1015C41.5174 75.8489 41.8286 75.7227 42.2028 75.7227C42.4479 75.7227 42.6681 75.7825 42.8635 75.9021C43.0588 76.0184 43.2045 76.1763 43.3006 76.3757L42.938 76.5851C42.8751 76.4522 42.7774 76.3458 42.6449 76.266C42.5158 76.1863 42.3684 76.1464 42.2028 76.1464C41.9545 76.1464 41.7459 76.2311 41.577 76.4006C41.4114 76.5735 41.3286 76.7845 41.3286 77.0338C41.3286 77.2797 41.4114 77.4891 41.577 77.6619C41.7459 77.8314 41.9545 77.9161 42.2028 77.9161C42.3684 77.9161 42.5174 77.8779 42.6499 77.8015C42.7823 77.7217 42.8833 77.6154 42.9529 77.4824L43.3204 77.6968C43.2112 77.8962 43.0572 78.0541 42.8585 78.1704C42.6598 78.2867 42.4413 78.3449 42.2028 78.3449Z" fill="white"/>
            <path d="M40.5282 77.2332H38.447C38.49 77.4525 38.591 77.6253 38.75 77.7516C38.9089 77.8746 39.1076 77.9361 39.346 77.9361C39.6738 77.9361 39.9123 77.8148 40.0613 77.5722L40.4288 77.7815C40.1838 78.1571 39.8195 78.3449 39.3361 78.3449C38.9453 78.3449 38.6241 78.2219 38.3724 77.976C38.1274 77.7234 38.0049 77.4093 38.0049 77.0338C38.0049 76.6549 38.1257 76.3425 38.3675 76.0965C38.6092 75.8473 38.9221 75.7227 39.3063 75.7227C39.6705 75.7227 39.9669 75.8523 40.1954 76.1115C40.4272 76.3641 40.5431 76.6732 40.5431 77.0387C40.5431 77.1019 40.5381 77.1667 40.5282 77.2332ZM39.3063 76.1314C39.0778 76.1314 38.8857 76.1962 38.7301 76.3259C38.5778 76.4555 38.4834 76.6316 38.447 76.8543H40.106C40.0696 76.625 39.9785 76.4472 39.8328 76.3209C39.6871 76.1946 39.5116 76.1314 39.3063 76.1314Z" fill="white"/>
            <path d="M36.358 78.3305V79.2777H35.9308V78.3305C35.5434 78.2873 35.2338 78.1461 35.002 77.9068C34.7702 77.6708 34.6543 77.38 34.6543 77.0344C34.6543 76.6887 34.7702 76.3979 35.002 76.1619C35.2338 75.9227 35.5434 75.7814 35.9308 75.7382V74.791H36.358V75.7382C36.7455 75.7814 37.0551 75.9227 37.2869 76.1619C37.5187 76.3979 37.6346 76.6887 37.6346 77.0344C37.6346 77.38 37.5187 77.6708 37.2869 77.9068C37.0551 78.1461 36.7455 78.2873 36.358 78.3305ZM35.0815 77.0344C35.0815 77.267 35.156 77.4631 35.305 77.6226C35.4573 77.7788 35.6659 77.8752 35.9308 77.9117V76.157C35.6692 76.1902 35.4623 76.2866 35.31 76.4461C35.1576 76.6023 35.0815 76.7984 35.0815 77.0344ZM36.358 76.157V77.9117C36.6196 77.8752 36.8249 77.7788 36.9739 77.6226C37.1263 77.4631 37.2024 77.267 37.2024 77.0344C37.2024 76.8017 37.1263 76.6073 36.9739 76.4511C36.8249 76.2916 36.6196 76.1935 36.358 76.157Z" fill="white"/>
            <path d="M33.9012 77.966C33.6496 78.2186 33.3399 78.3449 32.9724 78.3449C32.6048 78.3449 32.2952 78.2186 32.0435 77.966C31.7918 77.7134 31.666 77.4027 31.666 77.0338C31.666 76.6649 31.7918 76.3541 32.0435 76.1015C32.2952 75.8489 32.6048 75.7227 32.9724 75.7227C33.3399 75.7227 33.6496 75.8489 33.9012 76.1015C34.1562 76.3574 34.2837 76.6682 34.2837 77.0338C34.2837 77.3993 34.1562 77.7101 33.9012 77.966ZM32.9724 77.9211C33.2207 77.9211 33.4293 77.8364 33.5982 77.6669C33.7671 77.4974 33.8516 77.2863 33.8516 77.0338C33.8516 76.7812 33.7671 76.5701 33.5982 76.4006C33.4293 76.2311 33.2207 76.1464 32.9724 76.1464C32.7273 76.1464 32.5204 76.2311 32.3515 76.4006C32.1826 76.5701 32.0982 76.7812 32.0982 77.0338C32.0982 77.2863 32.1826 77.4974 32.3515 77.6669C32.5204 77.8364 32.7273 77.9211 32.9724 77.9211Z" fill="white"/>
            <path d="M30.033 75.7227C30.3807 75.7227 30.6771 75.8506 30.9222 76.1065C31.1672 76.3624 31.2897 76.6715 31.2897 77.0338C31.2897 77.3993 31.1672 77.7101 30.9222 77.966C30.6804 78.2186 30.384 78.3449 30.033 78.3449C29.6224 78.3449 29.3095 78.1804 29.0942 77.8513V79.2771H28.6621V75.7875H29.0942V76.2162C29.3095 75.8872 29.6224 75.7227 30.033 75.7227ZM29.9784 77.9261C30.2268 77.9261 30.4354 77.8414 30.6043 77.6719C30.7731 77.4957 30.8576 77.283 30.8576 77.0338C30.8576 76.7812 30.7731 76.5701 30.6043 76.4006C30.4354 76.2278 30.2268 76.1414 29.9784 76.1414C29.7267 76.1414 29.5165 76.2278 29.3476 76.4006C29.1787 76.5701 29.0942 76.7812 29.0942 77.0338C29.0942 77.283 29.1787 77.4957 29.3476 77.6719C29.5165 77.8414 29.7267 77.9261 29.9784 77.9261Z" fill="white"/>
            <path d="M25.8525 75.7881H28.0033V78.2807H27.5712V76.2019H26.2847V78.2807H25.8525V75.7881Z" fill="white"/>
            <path d="M44.4392 28.3115C24.177 28.3115 7.72852 44.8199 7.72852 65.1558C7.72852 85.4916 24.177 102 44.4392 102C64.7013 102 81.1499 85.4916 81.1499 65.1558C81.1499 44.8199 64.7013 28.3115 44.4392 28.3115ZM44.4392 30.4474C45.3179 30.4474 46.3137 31.2378 47.2906 32.9483C48.2674 34.6589 49.1774 37.2028 49.9404 40.3614C50.2365 41.5871 50.5028 42.9308 50.753 44.3308H38.1254C38.3756 42.9308 38.6419 41.5871 38.938 40.3614C39.701 37.2028 40.611 34.6589 41.5878 32.9483C42.5646 31.2378 43.5605 30.4474 44.4392 30.4474ZM42.0429 30.5392C41.5522 31.0357 41.0932 31.6688 40.665 32.4185C39.605 34.2747 38.6806 36.89 37.903 40.109C37.5878 41.4138 37.3054 42.8408 37.0426 44.3308H16.7649C22.6224 36.4991 31.7063 31.2486 42.0429 30.5392ZM46.9373 30.6372C52.4989 31.4743 57.513 35.0751 61.3086 40.5408C65.6648 46.8139 68.3809 55.5246 68.3809 65.1558C68.3809 72.5112 66.7784 79.307 64.0893 84.9128H37.9321C37.0287 79.4343 36.4909 72.8184 36.4648 65.6897H50.2916C50.3621 65.6907 50.4321 65.6777 50.4975 65.6513C50.563 65.6249 50.6225 65.5857 50.6727 65.536C50.7229 65.4863 50.7628 65.4271 50.79 65.3619C50.8172 65.2966 50.8312 65.2265 50.8312 65.1558C50.8312 65.085 50.8172 65.0149 50.79 64.9496C50.7628 64.8844 50.7229 64.8252 50.6727 64.7755C50.6225 64.7258 50.563 64.6866 50.4975 64.6602C50.4321 64.6339 50.3621 64.6208 50.2916 64.6218H36.4648C36.4909 57.4931 37.0287 50.8772 37.9321 45.3987H50.9463C51.8724 51.0153 52.4198 57.8213 52.4198 65.1558C52.4198 71.7734 51.9752 77.9613 51.2081 83.2337C51.198 83.3031 51.2016 83.3739 51.2188 83.4419C51.2359 83.51 51.2663 83.574 51.308 83.6302C51.3498 83.6865 51.4022 83.734 51.4623 83.7699C51.5224 83.8059 51.5889 83.8296 51.6581 83.8397C51.7273 83.8498 51.7978 83.8462 51.8656 83.829C51.9333 83.8118 51.9971 83.7813 52.0532 83.7394C52.1092 83.6974 52.1565 83.6448 52.1923 83.5845C52.2281 83.5243 52.2517 83.4575 52.2618 83.3881C53.0376 78.0557 53.4838 71.8213 53.4838 65.1558C53.4838 57.8446 52.9479 51.053 52.027 45.3987H60.9324C61.0029 45.3997 61.0729 45.3866 61.1383 45.3602C61.2037 45.3339 61.2633 45.2947 61.3135 45.245C61.3637 45.1953 61.4036 45.1361 61.4308 45.0708C61.458 45.0056 61.472 44.9355 61.472 44.8647C61.472 44.794 61.458 44.7239 61.4308 44.6586C61.4036 44.5933 61.3637 44.5341 61.3135 44.4845C61.2633 44.4348 61.2037 44.3956 61.1383 44.3692C61.0729 44.3428 61.0029 44.3298 60.9324 44.3308H51.8358C51.573 42.8408 51.2905 41.4138 50.9754 40.109C50.1978 36.89 49.2733 34.2747 48.2133 32.4185C47.8146 31.7203 47.3901 31.1178 46.9373 30.6372ZM52.9518 31.507C60.7236 33.4785 67.4432 38.0864 72.1135 44.3308H70.5091C70.4386 44.3298 70.3686 44.3428 70.3032 44.3692C70.2377 44.3956 70.1782 44.4348 70.128 44.4845C70.0778 44.5341 70.0379 44.5933 70.0107 44.6586C69.9835 44.7239 69.9695 44.794 69.9695 44.8647C69.9695 44.9355 69.9835 45.0056 70.0107 45.0708C70.0379 45.1361 70.0778 45.1953 70.128 45.245C70.1782 45.2947 70.2377 45.3339 70.3032 45.3602C70.3686 45.3866 70.4386 45.3997 70.5091 45.3987H72.8742C76.6529 50.8689 78.8996 57.4812 79.0072 64.6218H73.7387H71.5732C71.5198 64.6207 71.4665 64.6278 71.4152 64.6426C71.3813 64.6532 71.3486 64.6672 71.3175 64.6844C71.3019 64.6926 71.2866 64.7017 71.2718 64.7115C71.2419 64.7309 71.2141 64.7532 71.1887 64.7782C71.1763 64.7908 71.1645 64.8041 71.1533 64.8178C71.1422 64.8319 71.1318 64.8465 71.1222 64.8616C71.1025 64.8912 71.0858 64.9226 71.0723 64.9555C71.0522 65.0048 71.0396 65.0568 71.0349 65.1099C71.0274 65.1991 71.0424 65.2887 71.0785 65.3706C71.0927 65.4035 71.1101 65.435 71.1305 65.4645C71.1409 65.4789 71.152 65.4928 71.1637 65.5062C71.1756 65.5193 71.1881 65.5318 71.2011 65.5437C71.2137 65.5562 71.2269 65.568 71.2406 65.5792C71.2547 65.5896 71.2693 65.5994 71.2843 65.6084C71.2997 65.6182 71.3157 65.6273 71.3321 65.6355C71.364 65.6513 71.3974 65.6639 71.4318 65.673C71.478 65.6849 71.5255 65.6905 71.5732 65.6897H73.7013H79.0072C78.8996 72.8303 76.6529 79.4426 72.8742 84.9128H65.2822C67.9108 79.2441 69.445 72.4588 69.445 65.1558C69.445 55.3235 66.6828 46.4118 62.1814 39.9296C59.6153 36.2343 56.4702 33.3268 52.9518 31.507ZM35.116 32.0452C35.0149 32.0437 34.9154 32.0712 34.8292 32.1244C34.264 32.4611 33.7089 32.8233 33.1645 33.2174C33.0499 33.3001 32.9727 33.4251 32.9499 33.565C32.9271 33.7048 32.9606 33.848 33.043 33.9631C33.1254 34.0782 33.2499 34.1557 33.3893 34.1785C33.5286 34.2014 33.6713 34.1678 33.7859 34.0851C34.3036 33.7103 34.8324 33.3634 35.3717 33.0422C35.4726 32.984 35.5518 32.8942 35.597 32.7865C35.6422 32.6788 35.651 32.5592 35.622 32.446C35.593 32.3329 35.5278 32.2324 35.4364 32.16C35.345 32.0876 35.2325 32.0472 35.116 32.0452ZM30.9304 35.2469C30.7925 35.2486 30.6606 35.3039 30.5625 35.4013C29.8543 36.0784 29.1684 36.8018 28.5134 37.5768C28.4681 37.6304 28.4337 37.6923 28.4123 37.7592C28.3908 37.8261 28.3827 37.8966 28.3884 37.9666C28.3941 38.0366 28.4135 38.1048 28.4454 38.1673C28.4774 38.2298 28.5213 38.2854 28.5747 38.3308C28.628 38.3763 28.6898 38.4108 28.7564 38.4323C28.823 38.4538 28.8932 38.462 28.963 38.4562C29.0328 38.4505 29.1007 38.4311 29.163 38.399C29.2253 38.3669 29.2807 38.3229 29.326 38.2693C29.9563 37.5236 30.6147 36.8245 31.2962 36.173C31.375 36.0999 31.43 36.0045 31.4538 35.8993C31.4776 35.7942 31.4692 35.6844 31.4296 35.5842C31.39 35.4839 31.3211 35.3981 31.232 35.3379C31.1429 35.2777 31.0378 35.246 30.9304 35.2469ZM27.2809 39.5187C27.1943 39.5184 27.1088 39.5393 27.032 39.5796C26.9552 39.62 26.8894 39.6786 26.8403 39.7503C26.118 40.7754 25.434 41.8583 24.8016 43.0042C24.7677 43.0655 24.7462 43.133 24.7384 43.2026C24.7305 43.2723 24.7364 43.3429 24.7557 43.4103C24.775 43.4777 24.8073 43.5406 24.8508 43.5955C24.8944 43.6503 24.9482 43.6961 25.0094 43.73C25.0705 43.764 25.1377 43.7855 25.2072 43.7934C25.2766 43.8013 25.3469 43.7954 25.414 43.7761C25.4812 43.7567 25.5439 43.7242 25.5986 43.6806C25.6532 43.6369 25.6988 43.5828 25.7326 43.5214C26.3451 42.4118 27.0077 41.363 27.7091 40.3677C27.7669 40.2881 27.8017 40.1941 27.8097 40.096C27.8176 39.9979 27.7984 39.8994 27.7541 39.8116C27.7098 39.7237 27.6421 39.6499 27.5586 39.5982C27.4751 39.5465 27.379 39.519 27.2809 39.5187ZM67.3169 44.3308C67.2463 44.3298 67.1764 44.3428 67.1109 44.3692C67.0455 44.3956 66.986 44.4348 66.9357 44.4845C66.8855 44.5341 66.8457 44.5933 66.8185 44.6586C66.7912 44.7239 66.7772 44.794 66.7772 44.8647C66.7772 44.9355 66.7912 45.0056 66.8185 45.0708C66.8457 45.1361 66.8855 45.1953 66.9357 45.245C66.986 45.2947 67.0455 45.3339 67.1109 45.3602C67.1764 45.3866 67.2463 45.3997 67.3169 45.3987H68.3809C68.4514 45.3997 68.5214 45.3866 68.5868 45.3602C68.6523 45.3339 68.7118 45.2947 68.762 45.245C68.8122 45.1953 68.8521 45.1361 68.8793 45.0708C68.9065 45.0056 68.9205 44.9355 68.9205 44.8647C68.9205 44.794 68.9065 44.7239 68.8793 44.6586C68.8521 44.5933 68.8122 44.5341 68.762 44.4845C68.7118 44.4348 68.6523 44.3956 68.5868 44.3692C68.5214 44.3428 68.4514 44.3298 68.3809 44.3308H67.3169ZM16.0042 45.3987H36.8514C35.9531 50.9136 35.4264 57.5162 35.4008 64.6218H20.5494C20.6211 58.0365 21.916 51.8802 24.1802 46.6794C24.2121 46.6146 24.2305 46.5439 24.2344 46.4717C24.2383 46.3995 24.2276 46.3272 24.2028 46.2593C24.178 46.1914 24.1398 46.1293 24.0904 46.0766C24.041 46.024 23.9814 45.982 23.9153 45.9531C23.8493 45.9243 23.778 45.9092 23.706 45.9088C23.6339 45.9084 23.5626 45.9227 23.4962 45.9509C23.4298 45.979 23.3698 46.0203 23.3198 46.0724C23.2698 46.1245 23.2309 46.1863 23.2054 46.2539C20.8789 51.598 19.5569 57.8935 19.4853 64.6218H9.87122C9.97875 57.4812 12.2255 50.8689 16.0042 45.3987ZM55.612 64.6218C55.5415 64.6208 55.4715 64.6339 55.4061 64.6602C55.3406 64.6866 55.2811 64.7258 55.2309 64.7755C55.1807 64.8252 55.1408 64.8844 55.1136 64.9496C55.0864 65.0149 55.0724 65.085 55.0724 65.1558C55.0724 65.2265 55.0864 65.2966 55.1136 65.3619C55.1408 65.4271 55.1807 65.4863 55.2309 65.536C55.2811 65.5857 55.3406 65.6249 55.4061 65.6513C55.4715 65.6777 55.5415 65.6907 55.612 65.6897H60.9324C61.0029 65.6907 61.0729 65.6777 61.1383 65.6513C61.2037 65.6249 61.2633 65.5857 61.3135 65.536C61.3637 65.4863 61.4036 65.4271 61.4308 65.3619C61.458 65.2966 61.472 65.2265 61.472 65.1558C61.472 65.085 61.458 65.0149 61.4308 64.9496C61.4036 64.8844 61.3637 64.8252 61.3135 64.7755C61.2633 64.7258 61.2037 64.6866 61.1383 64.6602C61.0729 64.6339 61.0029 64.6208 60.9324 64.6218H55.612ZM64.1246 64.6218C64.0541 64.6208 63.9841 64.6339 63.9187 64.6602C63.8533 64.6866 63.7937 64.7258 63.7435 64.7755C63.6933 64.8252 63.6534 64.8844 63.6262 64.9496C63.599 65.0149 63.585 65.085 63.585 65.1558C63.585 65.2265 63.599 65.2966 63.6262 65.3619C63.6534 65.4271 63.6933 65.4863 63.7435 65.536C63.7937 65.5857 63.8533 65.6249 63.9187 65.6513C63.9841 65.6777 64.0541 65.6907 64.1246 65.6897H66.2528C66.3233 65.6907 66.3933 65.6777 66.4587 65.6513C66.5241 65.6249 66.5837 65.5857 66.6339 65.536C66.6841 65.4863 66.7239 65.4271 66.7512 65.3619C66.7784 65.2966 66.7924 65.2265 66.7924 65.1558C66.7924 65.085 66.7784 65.0149 66.7512 64.9496C66.7239 64.8844 66.6841 64.8252 66.6339 64.7755C66.5837 64.7258 66.5241 64.6866 66.4587 64.6602C66.3933 64.6339 66.3233 64.6208 66.2528 64.6218H64.1246ZM9.87122 65.6897H19.4708C19.5449 72.7848 21.0333 79.386 23.5962 84.9128H16.0042C12.2255 79.4426 9.97875 72.8303 9.87122 65.6897ZM20.5349 65.6897H35.4008C35.4264 72.7953 35.9531 79.3979 36.8514 84.9128H24.7891C22.1668 79.4464 20.6114 72.8357 20.5349 65.6897ZM16.7649 85.9808H24.1739C24.9501 87.5244 25.7613 89.0345 26.6969 90.3819C29.279 94.1001 32.449 97.0079 35.9951 98.8191C28.1946 96.8572 21.4488 92.2432 16.7649 85.9808ZM25.4001 85.9808H37.0426C37.3054 87.4707 37.5878 88.8977 37.903 90.2025C38.6806 93.4215 39.605 96.0368 40.665 97.893C41.0638 98.5912 41.4883 99.1937 41.9411 99.6743C36.3795 98.8372 31.3654 95.2364 27.5698 89.7707C26.7668 88.6143 26.0849 87.2933 25.4001 85.9808ZM38.1254 85.9808H63.4783C62.7934 87.2933 62.1116 88.6143 61.3086 89.7707C57.5106 95.2399 52.4927 98.8422 46.9269 99.6764C47.194 99.3946 47.4501 99.0745 47.6958 98.7169C48.628 97.3601 49.4554 95.452 50.1877 93.0809C50.2084 93.014 50.2158 92.9436 50.2095 92.8737C50.2031 92.8039 50.1831 92.736 50.1506 92.6739C50.118 92.6118 50.0737 92.5568 50.0199 92.5119C49.9662 92.467 49.9042 92.4333 49.8375 92.4124C49.7708 92.3916 49.7006 92.3842 49.631 92.3906C49.5614 92.397 49.4938 92.4171 49.4319 92.4497C49.3701 92.4823 49.3152 92.5269 49.2705 92.5808C49.2258 92.6347 49.1922 92.6969 49.1714 92.7639C48.4587 95.0715 47.6532 96.9006 46.8209 98.112C45.9886 99.3234 45.1771 99.8641 44.4392 99.8641C43.5605 99.8641 42.5646 99.0737 41.5878 97.3632C40.611 95.6526 39.701 93.1087 38.938 89.9501C38.6419 88.7244 38.3756 87.3807 38.1254 85.9808ZM64.7045 85.9808H72.1135C67.4287 92.2444 60.6815 96.8599 52.8791 98.8212C56.427 97.0107 59.5984 94.1016 62.1814 90.3819C63.1171 89.0345 63.9283 87.5244 64.7045 85.9808ZM50.9982 87.0404C50.8754 87.0427 50.7572 87.0876 50.6637 87.1674C50.5701 87.2473 50.5069 87.3571 50.4849 87.4784C50.3382 88.2122 50.184 88.9131 50.0235 89.5955C50.0049 89.6646 50.0002 89.7367 50.0099 89.8076C50.0196 89.8785 50.0433 89.9468 50.0798 90.0083C50.1163 90.0698 50.1647 90.1233 50.2222 90.1657C50.2796 90.208 50.345 90.2383 50.4144 90.2548C50.4838 90.2713 50.5558 90.2737 50.6261 90.2617C50.6964 90.2497 50.7636 90.2237 50.8237 90.1852C50.8837 90.1466 50.9355 90.0963 50.9758 90.0373C51.0162 89.9783 51.0443 89.9118 51.0585 89.8416C51.2215 89.1485 51.379 88.4334 51.5282 87.687C51.5451 87.6082 51.5441 87.5267 51.5252 87.4484C51.5063 87.3702 51.47 87.2972 51.419 87.235C51.368 87.1728 51.3037 87.123 51.2308 87.0893C51.158 87.0556 51.0784 87.0389 50.9982 87.0404Z" fill="url(#paint0_linear_5620_1008)"/>
            <defs>
            <linearGradient id="paint0_linear_5620_1008" x1="17.4582" y1="19.5853" x2="59.3415" y2="79.5569" gradientUnits="userSpaceOnUse">
            <stop stop-color="white"/>
            <stop offset="0.630571" stop-color="white" stop-opacity="0"/>
            </linearGradient>
            </defs>
            </svg> 