<svg width="50" height="50" viewBox="0 0 50 50" fill="none" xmlns="http://www.w3.org/2000/svg">
<circle cx="25" cy="25" r="25" fill="#61C7F5"/>
<g clip-path="url(#clip0_5620_1101)">
<path d="M34.3975 16.2598C34.0175 15.9748 33.495 15.9273 32.925 16.1648C32.3075 16.3548 15.6825 23.4798 15.0175 23.7648C14.875 23.8123 13.83 24.2398 13.925 25.1423C14.02 25.9498 14.875 26.2823 14.97 26.3298L19.1975 27.7548C19.4825 28.7048 20.5275 32.1248 20.7175 32.8848C20.86 33.3598 21.0975 33.9298 21.4775 34.0723C21.8575 34.2148 22.19 34.0723 22.4275 33.8823L24.9925 31.5073L29.1725 34.7373L29.2675 34.7848C29.5525 34.9273 29.8375 34.9748 30.075 34.9748C30.265 34.9748 30.455 34.9273 30.645 34.8798C31.2625 34.6423 31.5 34.0248 31.5475 33.9773L34.6825 17.7798C34.92 16.8773 34.6825 16.4498 34.3975 16.2598ZM22.95 28.3248L21.525 32.1248L20.1 27.3748L31.025 19.2998L22.95 28.3248Z" fill="white"/>
</g>
<defs>
<clipPath id="clip0_5620_1101">
<rect width="23.75" height="23.75" fill="white" transform="translate(13.125 13.125)"/>
</clipPath>
</defs>
</svg>
