<svg width="50" height="50" viewBox="0 0 50 50" fill="none" xmlns="http://www.w3.org/2000/svg">
<circle cx="25" cy="25" r="25" fill="#0077FF"/>
<path d="M35.8817 30.6011C34.9832 28.9841 32.6687 27.0411 31.7132 26.1956C31.4517 25.9641 31.4237 25.5636 31.6617 25.3076C33.4852 23.3481 34.9437 21.0966 35.4457 19.7361C35.6672 19.1351 35.2087 18.5001 34.5627 18.5001H32.6862C32.0677 18.5001 31.7057 18.7221 31.5332 19.0756C30.0177 22.1811 28.7177 23.5251 27.8077 24.3106C27.2982 24.7506 26.5037 24.3861 26.5037 23.7166C26.5037 22.4266 26.5037 20.7591 26.5037 19.5766C26.5037 19.0031 26.0347 18.5391 25.4562 18.5391L22.0282 18.5001C21.5967 18.5001 21.3502 18.9886 21.6092 19.3311L22.1752 20.1436C22.3882 20.4251 22.5032 20.7676 22.5032 21.1191L22.5002 24.7781C22.5002 25.4146 21.7287 25.7256 21.2707 25.2796C19.7212 23.7706 18.3767 20.6891 17.8927 19.2156C17.7527 18.7891 17.3532 18.5011 16.9002 18.5001L15.0517 18.4956C14.3582 18.4956 13.8512 19.1531 14.0397 19.8151C15.7287 25.7436 19.1942 31.3836 25.3702 31.9951C25.9787 32.0551 26.5037 31.5651 26.5037 30.9586V29.0356C26.5037 28.4841 26.9362 28.0101 27.4922 27.9961C27.5117 27.9956 27.5312 27.9956 27.5507 27.9956C29.1842 27.9956 31.0137 30.3731 31.6537 31.4851C31.8377 31.8051 32.1817 32.0001 32.5537 32.0001H35.0402C35.7657 32.0001 36.2312 31.2306 35.8817 30.6011Z" fill="#F9FBFB"/>
</svg>
