<svg width="50" height="50" viewBox="0 0 50 50" fill="none" xmlns="http://www.w3.org/2000/svg">
<circle cx="25" cy="25" r="25" fill="#6CD96C"/>
<path d="M25.0003 14.0752C18.9678 14.0752 14.0753 18.9677 14.0753 25.0002C14.0753 26.9002 14.5503 28.7527 15.5003 30.3677L14.0753 35.3077C14.0278 35.4502 14.0753 35.6402 14.1703 35.7827C14.3128 35.8777 14.4078 35.9252 14.5503 35.9252C14.5978 35.9252 14.6453 35.9252 14.6453 35.9252L19.8228 34.6427C21.4378 35.4977 23.1953 35.9252 25.0003 35.9252C31.0328 35.9252 35.9253 31.0327 35.9253 25.0002C35.9253 18.9677 31.0328 14.0752 25.0003 14.0752ZM30.5103 28.8477C30.2728 29.5127 29.1328 30.0827 28.6103 30.1777C28.1353 30.2252 27.5178 30.2727 26.8528 30.0827C26.4253 29.9402 25.9028 29.7977 25.2378 29.5127C22.4353 28.3252 20.5828 25.5227 20.4403 25.3327C20.2978 25.1427 19.3003 23.8127 19.3003 22.4827C19.3003 21.1527 20.0128 20.4402 20.2978 20.1552C20.5828 19.8702 20.8678 19.8227 21.0578 19.8227C21.2478 19.8227 21.4378 19.8227 21.5803 19.8227C21.7703 19.8227 22.0078 19.7752 22.1978 20.2977C22.4353 20.8677 23.0053 22.1977 23.0528 22.3402C23.1003 22.4827 23.1478 22.6252 23.0528 22.8152C22.9578 23.0052 22.9103 23.1002 22.7678 23.2902C22.6253 23.4802 22.4828 23.6702 22.3403 23.7652C22.1978 23.9077 22.0553 24.0502 22.1978 24.3352C22.3403 24.6202 22.9103 25.5227 23.7653 26.2352C24.8578 27.1852 25.7603 27.4702 25.9978 27.6127C26.2828 27.7552 26.4253 27.7077 26.6153 27.5652C26.7578 27.3752 27.3278 26.7577 27.5178 26.4727C27.7078 26.1877 27.8978 26.2352 28.1353 26.3302C28.3728 26.4252 29.7503 27.0902 30.0353 27.2327C30.3203 27.3752 30.5103 27.4227 30.5578 27.5652C30.7478 27.6602 30.7478 28.2302 30.5103 28.8477Z" fill="white"/>
</svg>
